<?xml version="1.0" encoding="UTF-8"?>
<svg id="Capa_2" data-name="Capa 2" xmlns="http://www.w3.org/2000/svg" viewBox="0 0 170.61 179.6">
  <defs>
    <style>
      .cls-1 {
        fill: #3c7abd;
      }

      .cls-1, .cls-2, .cls-3, .cls-4 {
        stroke-width: 0px;
      }

      .cls-2 {
        fill: #672900;
      }

      .cls-3 {
        fill: #ffcc38;
      }

      .cls-4 {
        fill: #f5f3ef;
      }
    </style>
  </defs>
  <g id="Capa_3" data-name="Capa 3">
    <g>
      <g>
        <g>
          <path class="cls-4" d="M100.18,137.67c-.19,0-.36.03-.52.1-1.54.62-2.01,4.39-.22,8.81,1.78,4.42,4.73,6.82,6.27,6.2,1.54-.62,2.01-4.39.22-8.81-1.6-3.96-4.13-6.29-5.75-6.29Z"/>
          <path class="cls-4" d="M107.46,143.35c.63,1.56,1.02,3.1,1.17,4.52.43-.19.91-.27,1.38-.25.14-.55.32-1.1.56-1.62.19-.42.68-.6,1.09-.42.42.19.6.68.42,1.09-1.41,3.15-.77,7.13,1.57,9.68,2.24,2.44,5.94,3.45,9.12,2.51,1.67-5.56,1.44-10.78-.65-14.75-2.39-4.53-6.54-7.99-11.42-9.54-1.16.54-2.38,1.11-3.61,1.68-1.1.52-2.21,1.03-3.27,1.53,1.39,1.29,2.69,3.22,3.64,5.57Z"/>
        </g>
        <path class="cls-1" d="M101.44,141.59c-3.64.77-10.96,1.8-13.7,1.54-4.32-.41-7.99-2.59-9.35-5.55-.9-1.96-.99-4.58-.24-7.39.77-2.9,2.32-5.81,3.82-8.61,1.08-2.01.32-4.52-1.7-5.59-2.01-1.08-4.52-.32-5.59,1.7-1.72,3.22-3.5,6.55-4.52,10.38-.88,3.3-1.47,8.23.72,12.97,2.61,5.67,8.77,9.62,16.07,10.32.9.09,1.8.12,2.69.12,3.08,0,10.47-1.13,14.17-1.94.16-5.34-2.35-7.85-2.37-7.95Z"/>
        <path class="cls-1" d="M96.83,119.36c-1.91-1.24-4.47-.7-5.71,1.22-7.61,11.73-16.61,22.55-26.76,32.17,1.72,2.25,4.11,4,6.79,4.94,10.17-9.8,19.22-20.76,26.91-32.61,1.24-1.91.7-4.47-1.22-5.71Z"/>
        <path class="cls-4" d="M75.7,161.2c-1.37,1.96-6.05,1.05-10.46-2.04-4.41-3.08-6.87-7.17-5.5-9.13,1.37-1.96,6.05-1.05,10.46,2.04,4.41,3.08,6.87,7.17,5.5,9.13Z"/>
        <path class="cls-1" d="M75.82,156.63c-1.1-1.82-2.92-3.68-5.15-5.24-4.93-3.45-9.93-4.24-11.61-1.83-.8,1.14-.69,2.75.29,4.58-.42.2-.84.4-1.25.62-.96-2.19-2.51-4.13-4.49-5.5-3.4-2.37-7.94-2.98-11.84-1.59-3.64,1.29-6.62,4.28-7.94,7.91-.1.28-.19.54-.26.79-.05.16-.04.33,0,.49,2.38,7.07,6.66,13.18,11.74,16.79,5.42,3.84,12.03,5.94,18.68,5.94h.42c.13,0,.26-.04.37-.1.05-.03.11-.06.16-.11.05-.04.09-.09.13-.14l.17-.25s0,0,0,0c3.47-4.87,6.04-10.57,7.23-15.96.21.02.42.03.62.03,1.46,0,2.62-.45,3.27-1.39.86-1.23.67-3.02-.55-5.04ZM63.67,177.94c-.05,0-.11,0-.16,0-.43,0-.86-.02-1.3-.05-.39-.02-.79-.05-1.18-.09-.58-.05-1.17-.13-1.75-.22-.37-.06-.75-.12-1.12-.2-.02,0-.04,0-.06,0-.57-.11-1.14-.24-1.7-.39-.19-.05-.38-.1-.57-.15-.19-.05-.38-.11-.57-.16-.19-.05-.37-.11-.56-.17-.19-.06-.38-.12-.56-.18-.29-.1-.58-.2-.86-.31-.12-.05-.25-.09-.37-.14-.18-.07-.36-.14-.54-.21-.18-.07-.36-.15-.53-.22-.54-.23-1.08-.48-1.61-.75-.16-.08-.32-.16-.48-.25-.34-.18-.68-.36-1.01-.56-.17-.1-.34-.19-.5-.29-.16-.1-.33-.2-.49-.3-.49-.31-.97-.63-1.45-.96-.3-.21-.59-.43-.88-.66-.29-.23-.58-.47-.86-.71-.15-.12-.29-.25-.42-.37-.28-.25-.56-.52-.83-.79-3.42-3.38-6.26-8-8.05-13.19.02-.07.05-.14.07-.21.03-.02.07-.05.1-.06,2.28-1.4,5.36-.33,7.25,1.26,1.58,1.33,2.75,3.04,3.99,4.86.44.65.9,1.32,1.38,1.96,3.07,4.18,7.14,7.64,11.74,10.02l.42.22c1.1.56,2.13,1.09,2.81,1.93.32.39.53.85.65,1.37h0ZM70.02,165.8c-.1.32-.21.64-.32.96-.08.22-.16.45-.24.68-.13.37-.27.73-.42,1.09-.07.18-.14.37-.22.55-.22.54-.46,1.09-.71,1.63-.16.36-.33.72-.51,1.08-.8,1.64-1.7,3.24-2.69,4.76-.17-.36-.37-.7-.63-1.01-.9-1.12-2.15-1.75-3.35-2.37l-.42-.21c-4.38-2.27-8.24-5.56-11.17-9.53-.46-.62-.91-1.28-1.34-1.91-1.25-1.83-2.54-3.71-4.29-5.19-1.89-1.59-4.79-2.73-7.41-2.12,1.36-2.27,3.5-4.07,6-4.96,3.41-1.21,7.37-.68,10.35,1.39.16.11.32.23.48.36.2.16.39.32.58.48.17.15.33.31.49.47.16.16.32.33.46.5.13.15.26.3.38.46.13.17.26.34.39.52.08.11.16.22.22.33,0,0,.01.02.02.04.16.24.31.48.44.74.28.51.53,1.03.72,1.58,0,0,0,.01,0,.02.03.07.06.15.08.22,0,0,0,0,0,.01.19.55.34,1.12.44,1.69,0,0,0,.02,0,.04.03.14.05.28.07.42.03.18.05.37.06.56,0,.11.02.23.02.34,0,.15.02.3.02.45,0,.46.37.82.84.82.46,0,.82-.38.82-.84,0-.15,0-.3-.01-.44,0-.15-.02-.3-.03-.44-.01-.15-.03-.3-.05-.44s-.04-.3-.06-.44c-.09-.58-.23-1.16-.4-1.73,0,0,0,0,0,0,.11-.06.22-.11.33-.17.41-.21.82-.4,1.23-.59h0c.16-.08.32-.15.48-.22.35-.16.7-.32,1.05-.49.48-.23.95-.46,1.41-.72.43.13.86.29,1.27.47.21.09.42.18.62.28.13.06.26.12.38.2.27.14.54.3.8.46.18.11.35.22.52.34.01,0,.03.02.05.03.16.11.31.22.46.34.21.16.41.32.6.49.17.14.34.29.5.46.13.12.27.25.38.38.05.04.09.09.13.13.15.16.29.31.42.48.12.13.23.27.33.4.05.06.1.12.15.18.12.16.24.32.35.48.11.15.21.29.29.44.04.06.08.13.12.19.1.15.19.31.27.47.01.02.03.05.04.07.1.18.2.37.28.55,0,.01.01.02.02.04h0c.03.06.06.11.08.17-.04,0-.07-.01-.11-.03-.02.12-.04.25-.07.38-.08.41-.16.83-.26,1.25-.22,1-.5,2.01-.83,3.04ZM75.02,160.73c-.36.51-1.15.74-2.22.68-.05,0-.1,0-.14-.01.12-.14.2-.32.21-.5.01-.13,0-.27-.07-.39-1.8-3.91-5.35-6.92-9.49-8.07-.21-.05-.44-.03-.63.08-.58.33-1.21.64-1.83.94-.69-1.26-.85-2.34-.43-2.94.32-.45.99-.69,1.9-.69,1.8,0,4.55.93,7.41,2.93,2.04,1.43,3.7,3.11,4.68,4.74.83,1.38,1.06,2.6.61,3.24Z"/>
        <path class="cls-2" d="M56.86,156.1c.03.07.06.15.08.22-.02-.04-.04-.07-.05-.11-.01-.04-.03-.07-.03-.11Z"/>
        <g>
          <path class="cls-2" d="M56.4,176.97c.56.15,1.13.27,1.7.39-.57-.11-1.14-.24-1.7-.39Z"/>
          <path class="cls-2" d="M59.07,158.05c-.09-.58-.23-1.16-.4-1.73,0,0,0,0,0,0,.17.57.3,1.15.39,1.73Z"/>
          <path class="cls-2" d="M59.28,177.57c.58.09,1.17.16,1.75.22-.58-.05-1.17-.13-1.75-.22Z"/>
          <path class="cls-2" d="M63.51,177.94h.16c-.05,0-.11,0-.16,0Z"/>
          <path class="cls-2" d="M71.19,161c.03.05.06.11.08.16-.04,0-.07-.01-.11-.03,0-.05.01-.09.02-.14Z"/>
          <path class="cls-2" d="M72.86,160.89c0,.05,0,.11,0,.17-.02.11-.04.23-.06.34-.05,0-.1,0-.14-.01.12-.14.2-.32.21-.5Z"/>
        </g>
        <g>
          <path class="cls-1" d="M52.96,103.49c-11.52,2.97-22.45-3.91-29.81-8.55l3.65-5.8c8.8,5.54,17.41,10.27,25.79,7.3l2.28,6.46c-.64.23-1.28.42-1.91.58Z"/>
          <path class="cls-4" d="M20.58,95.52c1.75.86,1.99,2.9,3.55,3.22,1.5.32,5.45-2.36,5.78-7.47.24-3.64-2.01-2.62-2.63-5.01-1.02-3.97-1.91-3.35-.77-7.99,1.36-5.49-2.03-6.5-3.39-5.6-2.18,1.43.09,6.98-3.12,6.96-1.65,0-8.83-3.89-12.43-3.44-1.84.23-3.68,1.63-3.74,3.48-2.73-.17-3.98,3.39-1.75,4.97-.99-.07-2.09,1.51-.3,3.17,2.4,2.23,6.22,1.44,8.41,3.66,4.09,4.13,8.73,3.23,10.39,4.05Z"/>
          <g>
            <path class="cls-1" d="M28.58,86.96c-.46-.5-.55-1.17-.74-1.8-.3-1-.82-1.99-.98-3.03-.45-2.82,1.59-5.52.41-8.36-.66-1.58-2.4-2.67-4.1-2.03-1.93.72-1.91,3.12-2.03,4.83-.05.68,0,1.95-.81,2.2-.69.22-1.73-.35-2.34-.58-2.77-1.04-5.53-2.33-8.49-2.75-2.67-.39-5.66.76-6.36,3.47-2.53.45-3.82,3.4-2.43,5.48-.25.23-.46.51-.58.86-.4,1.17.22,2.35,1.06,3.15,1.93,1.81,4.59,1.75,6.91,2.7,1.33.55,2.23,1.74,3.4,2.54,1.02.7,2.17,1.23,3.35,1.59.99.3,2.01.47,3.04.61.73.1,1.59.09,2.27.4,1.26.71,1.69,2.2,2.91,2.95.76.47,1.56.49,2.38.21,2.05-.7,3.63-2.67,4.46-4.6.91-2.11,1.57-5.37-.4-7.08-.3-.26-.66-.46-.93-.76ZM25.87,97.32c-.66.45-1.4.88-2.12.31-1.07-.85-1.49-2.13-2.75-2.83-1.2-.54-2.56-.53-3.84-.74-2.08-.36-4.05-1.12-5.67-2.5-.78-.67-1.43-1.37-2.37-1.81-.9-.43-1.87-.66-2.84-.89-1.04-.25-2.12-.48-3.06-1-.5-.28-1-.65-1.31-1.14-.17-.27-.52-1.21.14-1.23,2.45-.18,4.91-.07,7.04,1.18.92.54,1.77-.89.84-1.43-2.3-1.35-4.94-1.58-7.56-1.42-1.16-1.26-.49-3.31,1.43-3.3,1.21.07,2.13.17,3.3.54.23.07.46.16.68.24.07.03.14.06.2.08.02,0,.02,0,.03.01,0,0,0,0,.02,0,.12.05.23.1.34.16.55.26,1.08.54,1.61.84.39.22.9.1,1.14-.29.22-.38.1-.92-.29-1.14-1.05-.58-2.13-1.14-3.28-1.51-.89-.28-1.81-.44-2.73-.53.81-2.28,4.11-2.02,6.04-1.51,2.24.59,4.38,1.51,6.54,2.33,1.32.5,3.01,1.23,4.27.16,1.24-1.05,1.06-3.01,1.19-4.47.11-1.22.74-3.07,2.26-1.89,2,1.55.28,5.27.07,7.23-.2,1.89.68,3.54,1.19,5.31.25.88.53,1.61,1.23,2.23.63.57,1.29.86,1.45,1.78.46,2.59-1.05,5.76-3.19,7.22Z"/>
            <path class="cls-1" d="M27.19,88.7c-.48.01-.79.35-.84.82,0,.08-.02.16-.03.24,0,.05-.01.1-.02.16-.01.09-.01.1,0,.05.01-.08-.02.14-.03.16-.02.09-.03.18-.05.27-.06.3-.13.59-.22.88-.02.06-.04.12-.06.18l-1.7,2.62s-.06.05-.08.07c-.02.02-.02.02-.02.02,0,0,0,0-.03.02-.12.08-.23.16-.35.23-.12.07-.25.14-.37.21-.08.04-.15.07-.23.11-.03.02-.28.11-.1.04-.4.16-.74.54-.6,1.01.12.39.58.77,1.01.6,1.36-.53,2.48-1.43,3.25-2.68.77-1.25,1.13-2.7,1.29-4.15.05-.43-.39-.85-.81-.84Z"/>
          </g>
        </g>
        <g>
          <path class="cls-1" d="M124.66,103.03c-.66,0-1.32-.03-2-.09l.6-6.83c8.86.79,16.01-5.94,23.16-13.5l4.98,4.71c-5.98,6.32-14.85,15.71-26.74,15.71Z"/>
          <path class="cls-4" d="M152.96,87.24c-1.48,1.27-1.21,3.3-2.63,4.01-1.37.68-5.86-.93-7.46-5.79-1.14-3.46,1.3-3.04,1.29-5.5,0-4.1,1.02-3.72-1.25-7.93-2.68-4.98.35-6.8,1.89-6.27,2.47.85,1.65,6.78,4.76,5.96,1.6-.42,7.58-5.97,11.18-6.43,1.84-.24,3.97.66,4.49,2.44,2.6-.84,4.7,2.29,2.93,4.38.94-.31,2.4.94,1.08,2.99-1.77,2.76-5.66,2.95-7.24,5.64-2.93,5.01-7.65,5.3-9.05,6.51Z"/>
          <g>
            <path class="cls-1" d="M170.28,72.29c-.21-.35-.51-.6-.84-.78.84-2.36-1.17-4.9-3.73-4.7-1.17-2.07-3.8-2.81-6.08-2.12-2.53.76-4.77,2.48-6.88,4-.9.65-3.47,3.25-4.46,1.73-1.03-1.59-.85-3.94-2.56-5.12-1.41-.97-3.31-.28-4.15,1.1-1.58,2.6.52,5.45,1.52,7.8.42.99.52,1.85.42,2.91-.1,1.13.12,2.73-.37,3.74-.38.79-1.07,1.3-1.3,2.19-.32,1.28.19,2.69.71,3.84,1.1,2.39,3.27,4.57,5.9,5.19.9.21,1.85.23,2.63-.33,1.32-.95,1.31-2.82,2.47-3.92.55-.44,1.35-.65,1.99-.91.99-.4,1.98-.83,2.9-1.39,1.06-.64,2.03-1.44,2.85-2.37.94-1.07,1.51-2.45,2.66-3.31,2.01-1.5,4.61-2.1,6.02-4.34.59-.94.92-2.2.31-3.22ZM168.93,73.81c-.09.64-.62,1.25-1.07,1.68-.78.75-1.77,1.24-2.71,1.74-.84.44-1.67.88-2.41,1.48-.86.69-1.34,1.55-1.96,2.44-1.22,1.74-2.94,2.97-4.86,3.84-1.18.53-2.51.86-3.53,1.68-.93.89-1.19,1.96-1.75,3.06-.45.87-.96.96-1.83.74-2.12-.52-3.83-2.32-4.73-4.25-.47-1-.99-2.29-.35-3.31.42-.67.96-1.18,1.17-1.98.27-1.02.13-2.17.23-3.22.08-.83.18-1.64.03-2.47-.43-2.44-2.84-4.61-2.43-7.18.24-1.47,1.8-2.14,2.61-.71.81,1.42.81,3.31,1.98,4.53,1.1,1.15,2.57.76,3.76.01,2.1-1.32,4.01-2.93,6.14-4.21,1.81-1.09,5.4-2.71,6.89-.43-.88.32-1.73.7-2.52,1.19-1.02.64-1.92,1.45-2.8,2.28-.33.31-.31.86,0,1.17.33.33.84.31,1.17,0,.43-.41.87-.81,1.32-1.19.1-.08.2-.16.3-.24.03-.02.02-.02.03-.03.01,0,0,0,.03-.02.05-.04.1-.07.15-.11.2-.15.41-.29.63-.43,1.03-.65,1.91-.98,3.06-1.34,1.86-.49,3.01,1.33,2.2,2.84-2.57.5-5.07,1.38-6.96,3.26-.76.75.41,1.92,1.17,1.17,1.75-1.73,4.1-2.45,6.52-2.89.49-.11.58.58.53.91Z"/>
            <path class="cls-1" d="M150.39,87.13c.18.02-.03,0-.07-.01-.08-.01-.17-.03-.25-.05-.15-.03-.3-.07-.45-.12-.13-.04-.27-.09-.4-.14-.02,0-.02,0-.03,0-.01,0,0,0-.03-.02-.03-.02-.07-.03-.1-.05l-2.3-2.11c-.03-.05-.07-.1-.1-.16-.16-.26-.3-.53-.43-.8-.06-.13-.12-.26-.18-.39-.01-.03-.06-.14-.07-.16-.03-.09-.07-.17-.1-.26-.15-.41-.57-.73-1.02-.58-.4.13-.74.59-.58,1.02.51,1.36,1.22,2.68,2.28,3.69,1.06,1.02,2.37,1.61,3.82,1.79.43.05.85-.42.83-.83-.02-.49-.37-.77-.83-.83Z"/>
          </g>
        </g>
        <g>
          <path class="cls-1" d="M31.64,61.7c-1.36,3.45-3.73,3.1-7.36,1.67-3.41-1.35-5.38-1.88-9.08-3.34-5.19-2.05-7.98-3.32-6.2-7.83,1.72-4.36,5.13-8.52,10.47-6.41.96.38,1.85.94,2.45,1.81.45.64.32,1.68.57,1.78.21.08.51-.05,1.15-.51,1.83-1.29,4.11-1.65,6.35-.77,5.4,2.14,4.3,6.91,2,12.72-.12.29-.23.58-.35.87ZM14.64,52.5c-.16.4,0,.42.48.65.29.11,1.59.67,1.87.78.36.14.56.14.69-.19.33-.84.41-1.86-.8-2.33-.68-.27-1.95.36-2.24,1.09ZM26.14,57.42c.68.27.98.22,1.15-.22.46-1.16.12-2.47-.84-2.85-1.28-.5-2.64.13-3.16,1.44-.16.4.06.57.84.88.82.32,1.26.45,2.01.75Z"/>
          <path class="cls-1" d="M20.53,31.41c4.24-5.66,15.18-1.13,21.02,3.24,1.71,1.28,2.98,2.97,1.72,4.66-1.69,2.25-4.1.89-6.25.06-.93-.35-1.58-.06-2.16.72-.26.34-.51.74-.74,1.25-.31.74-.16.91.36,1.49,1.58,1.91,4,4.16,2.24,6.51-1.31,1.75-3.05,1.33-5.13-.23-2.91-2.18-6.12-6.44-8.5-9.25-2.16-2.54-4.57-5.76-2.56-8.45ZM30.99,36.94c.33-.44.31-.6-.18-.97-1.5-1.12-3.64-1.84-4.01-1.34-.56.75,1.12,2.59,2.43,3.58.24.18.44.18.8-.18.32-.3.65-.68.96-1.09Z"/>
          <path class="cls-1" d="M45.59,17.44c-.47.35-3.18,1.1-3.59,1.4-2.03,1.52-.68,5.48.65,7.25,1.4,1.87,3.61,3.65,5.68,2.1.91-.68,1.57-1.56.6-2.84-.55-.73-2.39,2.08-4.48-.7-1.51-2.02-.45-3.34,1.45-4.77,2.88-2.16,4.3-2.41,6.77.89,3.03,4.04,4.67,8.83-.65,12.81-5.25,3.94-11.1.96-14.6-3.72-3.42-4.56-4.88-11.72.65-15.87,1.88-1.41,6.33-3.22,8.03-.95,1.03,1.38.74,3.46-.51,4.4Z"/>
          <path class="cls-1" d="M61.19,5.7c1.17,2.95-5.1,3.04-4.07,5.64.67,1.71,5.2-.66,6.34,2.22,1,2.52-3.39,3.76-2.97,4.83,1.22,3.09,5.88-2.45,7.57,1.82,1.29,3.27-1.71,5.36-4.87,6.61-5.52,2.18-7.88-3.14-10.08-8.72-.07-.18-.15-.39-.23-.57-2.06-5.23-3.96-10.35,1.81-12.63,2.4-.95,5.4-1.97,6.49.81Z"/>
          <path class="cls-1" d="M68.23,18.63c-.08-.53-.17-1.1-.25-1.62-.42-2.76-1.27-5.45-1.69-8.25-.49-3.21-.58-8.19,2.9-8.72,2.63-.4,3.83,2.55,4.21,5.08.54,3.51.66,7.44,1.29,11.56.12.76,1.07.77,2.11.61.73-.11,1.49-.31,2.04-.39,1.24-.19,2.37-.01,2.71,2.22.53,3.48-4.04,4.37-7.01,4.82-4.06.62-5.72-1.49-6.3-5.31Z"/>
          <path class="cls-1" d="M105.43,5.11c-1.46,7.2-7.44-.65-8.98,6.96-1.58,7.83,7.44,4.2,6.31,9.82-.45,2.25-3.37,3.06-6.05,2.52-6.2-1.25-8.21-6.5-6.96-12.72,1.86-9.18,7.75-11.31,11.73-10.5,2.41.49,4.35,1.97,3.95,3.92Z"/>
          <path class="cls-1" d="M122.03,15.27c-1.71,3.59-3.8,2.8-4.56,4.39-1.04,2.17.12,6.75-1.65,10.44-.39.83-1.9,1.26-3.48.5-4.2-2,1.05-11.19-.61-11.98-1.9-.91-4.03,9.72-7.8,7.93-2.79-1.33-1.55-4.55-.45-6.87.56-1.17,1.05-2.21,1.6-3.35.84-1.76,1.8-3.5,2.64-5.26,3.16-6.63,4.68-7.17,11.41-3.96,3.31,1.58,4.75,4.3,2.9,8.16ZM115.73,11.33c-.49-.24-.74-.27-1,.28-.16.35-.64,1.43-.75,1.76-.08.26-.08.34.03.39.67.32,2.43-.11,2.81-.9.31-.66-.59-1.3-1.09-1.53Z"/>
          <path class="cls-1" d="M129.73,28.01c.57-.67.66-.84,1.23-1.52,2.69-3.19,5.93-6.85,7.96-5.14,2.54,2.14.48,4.65-1.4,6.87-.07.09-.17.2-.25.29-4.68,5.55-11.1,13.05-16.96,8.11-6.22-5.24-2.96-10.25,1.92-16.03,1.11-1.32,2.34-2.53,3.47-3.88,1.7-2.02,3.44-3.6,5.89-1.53,2.18,1.84-.14,4.78-1.87,6.82-.76.91-1.53,1.76-2.4,2.78-1.8,2.13-2.46,3.28-1.17,4.36,1.37,1.16,2.24.44,3.57-1.14Z"/>
          <path class="cls-1" d="M127.42,44.12c-1.37-1.85-.88-4.01.71-5.2,3.38-2.51,6.71,1.73,9.69-.47,1.97-1.46-.46-5.3,1.91-7.06,3.99-2.96,8.08-.01,10.6,3.38.88,1.19,1.31,2.92-.26,4.08-2.46,1.82-3.96-1.88-5.77-.53-2.27,1.68-.77,5.38-4.73,8.32-4.33,3.21-9.26,1.37-12.15-2.52Z"/>
          <path class="cls-1" d="M146.77,49.07c1.49-.68,3.02-1.38,2.11-3.37-.68-1.49.21-2.84,1.53-3.45,3.48-1.59,5.69,2.6,7.08,5.65,1.36,2.99,2.52,6.15-.47,7.52-3.48,1.59-3.02-2.83-5.42-1.73-3.41,1.56-6.72,3.33-9.88,4.77-2.09.95-4.65,1.7-5.93-1.11-1.09-2.38,2.45-4.47,4.3-5.31,2.3-1.05,4.34-1.9,6.67-2.97Z"/>
        </g>
        <g>
          <path class="cls-4" d="M63.01,176.57c.32.39.53.85.65,1.37h-.16c-.43,0-.86-.02-1.3-.05-.39-.02-.79-.05-1.18-.09-.58-.06-1.17-.13-1.75-.22-.37-.06-.75-.13-1.12-.2-.02,0-.04,0-.06,0-.57-.11-1.14-.24-1.7-.39-.19-.05-.38-.1-.57-.15-.19-.05-.38-.11-.57-.16-.19-.05-.37-.11-.56-.17-.19-.06-.37-.12-.56-.18-.29-.1-.58-.2-.86-.31-.12-.05-.25-.09-.37-.14-.18-.07-.36-.14-.54-.21-.18-.07-.36-.15-.53-.22-.54-.23-1.08-.48-1.61-.75-.16-.08-.32-.16-.48-.25-.34-.18-.68-.37-1.01-.56-.17-.1-.34-.19-.5-.29-.16-.1-.33-.2-.49-.3-.49-.31-.97-.63-1.45-.96-.3-.21-.59-.43-.88-.66-.29-.23-.58-.47-.86-.71-.15-.12-.29-.25-.42-.37-.28-.26-.56-.52-.83-.79-3.42-3.38-6.26-8-8.05-13.19.02-.07.05-.14.07-.21.03-.02.07-.05.1-.06,2.28-1.4,5.36-.33,7.25,1.26,1.58,1.33,2.75,3.04,3.99,4.86.44.65.9,1.32,1.38,1.96,3.07,4.18,7.14,7.64,11.74,10.02l.42.22c1.1.56,2.13,1.09,2.81,1.93Z"/>
          <path class="cls-4" d="M71.19,160.99h0c0,.05-.01.1-.02.14-.02.12-.05.25-.07.38-.08.41-.16.83-.26,1.25-.22,1-.5,2.01-.83,3.04-.1.32-.21.64-.32.96-.08.22-.16.45-.24.68-.13.37-.27.73-.42,1.09-.07.18-.15.37-.22.55-.22.54-.46,1.09-.71,1.63-.16.36-.33.72-.51,1.08-.8,1.64-1.7,3.24-2.69,4.76-.17-.36-.37-.7-.63-1.01-.9-1.12-2.15-1.75-3.35-2.37l-.42-.21c-4.38-2.27-8.24-5.56-11.17-9.53-.46-.62-.91-1.28-1.34-1.91-1.25-1.83-2.54-3.71-4.29-5.19-1.89-1.59-4.79-2.73-7.41-2.12,1.36-2.27,3.5-4.07,6-4.96,3.41-1.21,7.37-.68,10.35,1.39.16.11.33.23.48.36.2.16.39.32.58.48.17.15.33.31.49.47.16.16.32.33.46.5.13.15.26.3.38.46.13.17.26.34.39.52.07.11.15.22.22.33,0,0,.01.02.02.04.16.24.3.48.44.74.28.51.52,1.03.72,1.58,0,0,0,.01,0,.02,0,.04.02.07.03.11,0,.04.03.07.05.11.19.56.34,1.13.45,1.71,0,0,0,.02,0,.04.03.14.05.28.07.42.03.18.05.37.06.56,0,.11.02.23.02.34,0,.15.02.3.02.45,0,.46.37.82.84.82.46,0,.82-.38.82-.84,0-.15,0-.3-.01-.44,0-.15-.02-.3-.03-.44-.01-.15-.03-.3-.05-.44s-.04-.3-.06-.44c-.09-.58-.23-1.16-.4-1.73,0,0,0,0,0,0,.11-.06.22-.11.33-.17.41-.21.82-.4,1.23-.59h0c.16-.08.32-.15.48-.22.35-.16.7-.32,1.05-.49.48-.23.95-.46,1.41-.72.43.13.86.29,1.27.47.21.09.42.18.62.28.13.06.26.13.38.2.27.14.54.3.8.46.17.11.35.22.52.34.01,0,.03.02.05.03.16.11.31.22.46.34.21.16.41.32.6.49.17.15.34.3.5.46.13.12.26.25.38.38.05.04.09.09.13.13.14.16.28.31.42.48.11.13.22.27.33.4.05.06.1.12.15.18.12.16.24.32.35.48.1.15.2.29.29.44.04.06.08.13.12.19.09.15.18.31.27.47.01.02.03.05.04.07.1.18.19.37.28.55,0,.01.01.02.02.04Z"/>
        </g>
        <path class="cls-1" d="M123.57,143.34c-2.65-5.01-7.28-8.82-12.7-10.45-.19-.06-.4-.04-.59.04-1.25.58-2.57,1.2-3.9,1.82-1.35.63-2.71,1.27-3.99,1.86-.03.01-.05.04-.07.05-1.15-.65-2.29-.84-3.29-.43-2.68,1.08-3.18,5.9-1.14,10.96,1.77,4.39,4.78,7.33,7.3,7.33.39,0,.76-.07,1.12-.21,1.71-.69,2.53-2.91,2.37-5.74,0,0,.01,0,.02-.01.02-.02.04-.04.06-.05,0,0,.02-.01.03-.02,0,0,0,0,0,0,.18-.13.37-.25.57-.35.02,0,.04-.02.06-.03.06-.02.12-.04.18-.06.07-.02.14-.04.22-.06.03,0,.06-.01.09-.02,0,0,.01,0,.02,0-.71,3.32.2,6.99,2.5,9.5,2,2.18,4.96,3.39,7.91,3.39,1.14,0,2.28-.18,3.36-.56.25-.09.44-.28.52-.53,1.94-6.13,1.71-11.97-.64-16.42ZM105.7,152.78c-1.54.62-4.49-1.78-6.27-6.2-1.78-4.42-1.31-8.2.22-8.81.16-.06.34-.1.52-.1,1.62,0,4.15,2.33,5.75,6.29,1.78,4.42,1.31,8.2-.22,8.81ZM122.77,158.86c-3.18.93-6.87-.07-9.12-2.51-2.34-2.55-2.98-6.53-1.57-9.68.19-.42,0-.91-.42-1.09-.42-.19-.9,0-1.09.42-.09.2-.17.4-.24.61-.13-.01-.26-.02-.39,0-.42.03-.79.14-1.17.31-.09.04-.17.09-.25.14-.2-1.18-.55-2.43-1.06-3.7-.95-2.35-2.25-4.28-3.65-5.57,1.07-.5,2.17-1.01,3.28-1.53,1.22-.57,2.44-1.14,3.61-1.68,4.87,1.55,9.02,5.02,11.42,9.54,2.1,3.97,2.32,9.19.65,14.75Z"/>
      </g>
      <g>
        <path class="cls-1" d="M26.57,121.1c0-1.85.07-4.6.15-5.26.04-.31.11-.47.34-.47.26,0,.68.06.87.32.5.78,1.81,3.82,2.51,5.79-.16-2.85-.25-5.3-.25-5.78,0-.22.06-.35.32-.35.37,0,.86.17.9.48.02.29.02.84.02,1.39,0,1.96-.11,5.16-.16,5.73-.02.2-.12.35-.33.35s-.68-.02-.87-.31c-.65-1.05-1.88-3.85-2.53-5.89.1,1.93.21,5.28.21,5.8,0,.26-.12.39-.34.39-.21,0-.74-.12-.81-.45-.02-.22-.02-.88-.02-1.75Z"/>
        <path class="cls-1" d="M32.57,122.53c0-.54.41-.93,1.02-.93.65,0,.87.42.87.77,0,.61-.39.98-.97.98s-.92-.38-.92-.81Z"/>
        <path class="cls-1" d="M34.59,115.33c.18,0,.64.08.77.33.26.51,1.08,2.7,1.55,4.41.44-1.64,1.08-3.67,1.31-4.37.09-.24.15-.35.32-.35.28,0,.69.15.69.4,0,.61-1.2,3.82-1.81,5.22-.01.65-.07,1.56-.09,1.8-.02.35-.09.54-.41.54-.34,0-.75-.09-.77-.4-.01-.24-.02-1.11-.01-1.84-.58-1.25-1.89-4.83-1.89-5.42,0-.21.09-.32.33-.32Z"/>
        <path class="cls-1" d="M38.74,122.53c0-.54.41-.93,1.02-.93.65,0,.87.42.87.77,0,.61-.39.98-.97.98s-.92-.38-.92-.81Z"/>
        <path class="cls-1" d="M23.61,133.09c.5,0,.81-.24.81-.64,0-1-3.4-1.05-3.4-3.34,0-1.64.88-2.98,2.35-2.98s1.88,1.4,1.88,2.66c0,.35-.36.78-.87.78-.15,0-.28-.11-.28-.29-.02-1.33-.37-2.08-.88-2.08s-.9.65-.9,1.78c0,1.45,3.27,1.46,3.27,3.35,0,1.15-1.03,1.84-2.25,1.84-1.44,0-2.42-.55-2.42-.95,0-.44.21-.85.44-.85.33,0,1.29.72,2.26.72Z"/>
        <path class="cls-1" d="M25.96,126.82c0-.17.07-.31.41-.39.47-.1,1.68-.24,3.17-.24.54,0,.91.39.91.72,0,.19-.21.27-.79.35-.21.03-.48.06-.76.09.07,1.73-.05,5.66-.09,6.28-.02.29-.1.46-.41.46-.39,0-.71-.11-.75-.41-.07-.55-.12-4.03-.07-6.24-.41.01-.8.04-1.11.04s-.52-.52-.52-.67Z"/>
        <path class="cls-1" d="M31.32,126.14c.18,0,.64.08.77.33.26.51,1.08,2.7,1.55,4.41.44-1.64,1.08-3.67,1.31-4.37.09-.24.15-.35.32-.35.28,0,.69.15.69.4,0,.61-1.2,3.82-1.81,5.22-.01.65-.07,1.56-.09,1.8-.02.35-.09.54-.41.54-.34,0-.75-.09-.77-.4-.01-.24-.02-1.11-.01-1.84-.58-1.25-1.89-4.83-1.89-5.42,0-.21.09-.32.33-.32Z"/>
        <path class="cls-1" d="M37.5,126.2c.31,0,.8.12.85.42.14.94.05,4.86-.01,6.44.72-.04,1.46-.07,1.79-.07.39,0,.68.32.68.7,0,.22-.12.27-.5.34-.18.04-1.06.09-1.76.09-.26,0-.47,0-.65-.01-.38,0-.7-.11-.75-.41-.07-.62-.12-5.1-.04-7.16.01-.2.12-.34.39-.34Z"/>
        <path class="cls-1" d="M41.26,126.81c0-.17.07-.31.41-.39.48-.09,1.76-.22,3.28-.22.54,0,.92.37.92.68,0,.2-.21.31-.81.39-.5.07-1.28.14-2.03.19.02.68.02,1.65.01,2.61.63-.09,1.33-.15,1.65-.15s.64.33.64.58-.09.32-.31.34c-.27.02-1.25.07-2,.09-.01.85-.04,1.64-.06,2.19.75-.08,1.51-.14,2.05-.14.47,0,.99.92.45.99-.28.05-1.88.19-2.85.19-.28,0-.81-.21-.88-.54-.06-.33-.09-3.96-.01-6.11h-.04c-.25,0-.42-.54-.42-.69Z"/>
      </g>
      <g>
        <path class="cls-1" d="M133.71,123.29c-.39-.01-.71-.11-.76-.41-.06-.55-.11-4.06-.06-6.25h-.12c-.23,0-.45-.58-.45-.75,0-.45,1.78-.59,2.52-.59,1.83,0,2.55.79,2.55,2.61,0,2.27-1.12,3.23-2.16,3.24-.41,0-.82-.08-1.03-.22-.02.92-.06,1.67-.07,1.92-.02.29-.09.47-.41.46ZM136.11,118.04c0-1.28-.39-1.65-1.24-1.65-.22,0-.44.02-.68.06.05.85.04,2.37.01,3.74.16.01.37.05.69.05.65,0,1.22-.66,1.22-2.19Z"/>
        <path class="cls-1" d="M138.48,116c0-.17.07-.31.41-.39.48-.09,1.76-.22,3.28-.22.54,0,.92.37.92.68,0,.2-.21.31-.81.39-.5.07-1.28.14-2.03.19.02.68.02,1.65.01,2.61.63-.09,1.33-.15,1.65-.15s.64.33.64.58-.09.32-.31.34c-.27.02-1.25.07-2,.09-.01.85-.04,1.64-.06,2.19.75-.08,1.51-.14,2.05-.14.47,0,.99.92.45.99-.28.05-1.88.19-2.85.19-.28,0-.81-.21-.88-.54-.06-.33-.09-3.96-.01-6.11h-.04c-.25,0-.42-.54-.42-.69Z"/>
        <path class="cls-1" d="M144.39,121.1c0-1.85.07-4.6.15-5.26.04-.31.11-.47.34-.47.26,0,.68.06.87.32.5.78,1.81,3.82,2.51,5.79-.16-2.85-.25-5.3-.25-5.78,0-.22.06-.35.32-.35.37,0,.86.17.9.48.02.29.02.84.02,1.39,0,1.96-.11,5.16-.16,5.73-.02.2-.12.35-.33.35s-.68-.02-.87-.31c-.65-1.05-1.88-3.85-2.53-5.89.1,1.93.21,5.28.21,5.8,0,.26-.12.39-.34.39-.21,0-.74-.12-.81-.45-.02-.22-.02-.88-.02-1.75Z"/>
        <path class="cls-1" d="M151.1,121.1c0-1.85.07-4.6.15-5.26.04-.31.11-.47.34-.47.26,0,.68.06.87.32.5.78,1.81,3.82,2.51,5.79-.16-2.85-.25-5.3-.25-5.78,0-.22.06-.35.32-.35.37,0,.86.17.9.48.02.29.02.84.02,1.39,0,1.96-.11,5.16-.16,5.73-.02.2-.12.35-.33.35s-.68-.02-.87-.31c-.65-1.05-1.88-3.85-2.53-5.89.1,1.93.21,5.28.21,5.8,0,.26-.12.39-.34.39-.21,0-.74-.12-.81-.45-.02-.22-.02-.88-.02-1.75Z"/>
        <path class="cls-1" d="M134.75,133.09c.5,0,.81-.24.81-.64,0-1-3.4-1.05-3.4-3.34,0-1.64.88-2.98,2.35-2.98s1.88,1.4,1.88,2.66c0,.35-.36.78-.87.78-.15,0-.28-.11-.28-.29-.02-1.33-.37-2.08-.88-2.08s-.9.65-.9,1.78c0,1.45,3.27,1.46,3.27,3.35,0,1.15-1.03,1.84-2.25,1.84-1.44,0-2.42-.55-2.42-.95,0-.44.21-.85.44-.85.33,0,1.29.72,2.26.72Z"/>
        <path class="cls-1" d="M137.1,126.82c0-.17.07-.31.41-.39.47-.1,1.68-.24,3.17-.24.54,0,.91.39.91.72,0,.19-.21.27-.79.35-.21.03-.48.06-.76.09.07,1.73-.05,5.66-.09,6.28-.02.29-.1.46-.41.46-.39,0-.71-.11-.75-.41-.07-.55-.12-4.03-.07-6.24-.41.01-.8.04-1.11.04s-.52-.52-.52-.67Z"/>
        <path class="cls-1" d="M146.79,133.8c0,.22-.07.37-.37.37-.33,0-.6-.11-.75-.37-.11-.21-.26-.78-.44-1.53-.47.05-1.35.14-2.08.2-.12.55-.22,1-.29,1.28-.07.29-.14.41-.34.41-.26,0-.68-.19-.68-.44,0-.26.06-.7.17-1.24-.23-.08-.42-.39-.42-.61-.01-.14.05-.25.17-.27.12-.01.27-.04.44-.05.38-1.71,1.01-3.89,1.41-5.01.12-.32.21-.4.43-.4.38,0,.77.12.92.48.6,1.39,1.82,6.6,1.82,7.17ZM145.05,131.48c-.28-1.26-.59-2.82-.86-4.09-.26,1.32-.57,2.85-.84,4.11.63-.01,1.25-.02,1.7-.02Z"/>
        <path class="cls-1" d="M146.92,126.82c0-.17.07-.31.41-.39.47-.1,1.68-.24,3.17-.24.54,0,.91.39.91.72,0,.19-.21.27-.79.35-.21.03-.48.06-.76.09.07,1.73-.05,5.66-.09,6.28-.02.29-.1.46-.41.46-.39,0-.71-.11-.75-.41-.07-.55-.12-4.03-.07-6.24-.41.01-.8.04-1.11.04s-.52-.52-.52-.67Z"/>
        <path class="cls-1" d="M152.23,126.81c0-.17.07-.31.41-.39.48-.09,1.76-.22,3.28-.22.54,0,.92.37.92.68,0,.2-.21.31-.81.39-.5.07-1.28.14-2.03.19.02.68.02,1.65.01,2.61.63-.09,1.33-.15,1.65-.15s.64.33.64.58-.09.32-.31.34c-.27.02-1.25.07-2,.09-.01.85-.04,1.64-.06,2.19.75-.08,1.51-.14,2.05-.14.47,0,.99.92.45.99-.28.05-1.88.19-2.85.19-.28,0-.81-.21-.88-.54-.06-.33-.09-3.96-.01-6.11h-.04c-.25,0-.42-.54-.42-.69Z"/>
      </g>
      <g>
        <g>
          <g>
            <path class="cls-1" d="M122.15,77.67c0-.98.18-1.91.49-2.78-3.09-1.21-5.29-4.21-5.29-7.73,0-.58.06-1.14.17-1.68-1.01.43-7.02-2.45-8.79-6.79-1.3-3.19-.69-7.23,2.3-8.48-6.9-5.05-15.4-8.04-24.6-8.04-23.03,0-41.7,18.67-41.7,41.7s18.67,41.7,41.7,41.7,40.74-17.74,41.65-39.96c-3.43-1.02-5.93-4.19-5.93-7.95ZM88.54,90.77c-5.47,0-9.9-4.43-9.9-9.9s4.43-9.9,9.9-9.9,9.9,4.43,9.9,9.9-4.43,9.9-9.9,9.9Z"/>
            <g>
              <path class="cls-1" d="M122.96,77.67c.01-.89.17-1.72.46-2.56.15-.45-.18-.84-.56-.99-3.32-1.33-5.23-4.92-4.55-8.41.11-.55-.37-1.23-.99-.99-.16.06.07.01.02.01-.05,0-.11,0-.17,0-.07-.01-.14-.02-.36-.08-.43-.11-.84-.28-1.24-.47-1.17-.56-2.27-1.27-3.25-2.12-2.21-1.9-3.77-4.55-3.36-7.56.21-1.57,1.02-2.93,2.49-3.58.61-.27.43-1.08,0-1.39-7.24-5.27-16.05-8.15-25.01-8.15-7.22,0-14.39,1.85-20.69,5.37-6.14,3.43-11.4,8.4-15.18,14.33-3.87,6.06-6.13,13.09-6.56,20.27s1.03,14.62,4.22,21.18c3.07,6.31,7.74,11.79,13.43,15.89,5.8,4.19,12.64,6.81,19.73,7.67,7.33.88,14.85-.19,21.65-3.07,6.46-2.74,12.21-7.1,16.58-12.58,4.48-5.61,7.52-12.32,8.71-19.4.3-1.79.49-3.59.57-5.4.02-.36-.26-.68-.59-.78-3.16-.97-5.3-3.87-5.34-7.17-.01-1.04-1.63-1.04-1.61,0,.04,4.03,2.68,7.54,6.53,8.73l-.59-.78c-.3,6.99-2.39,13.83-6.08,19.78-3.57,5.76-8.56,10.59-14.44,13.96-6.06,3.48-12.98,5.35-19.98,5.41-7,.06-13.96-1.68-20.09-5.06-5.89-3.26-10.96-7.96-14.61-13.62-3.75-5.79-6-12.51-6.45-19.4-.47-7.02.85-14.13,3.91-20.48,2.92-6.07,7.34-11.4,12.79-15.37,5.54-4.03,12.08-6.68,18.88-7.52,8.29-1.03,16.82.45,24.22,4.36,1.81.95,3.54,2.04,5.19,3.24v-1.39c-3.35,1.48-3.91,5.8-2.85,8.92,1.06,3.11,3.81,5.53,6.69,6.98.84.43,2.28,1.21,3.28.84l-.99-.99c-.85,4.43,1.5,8.72,5.68,10.4l-.56-.99c-.33.97-.5,1.97-.52,2.99s1.6,1.04,1.61,0Z"/>
              <path class="cls-1" d="M88.54,89.96c-3.76-.03-7.26-2.39-8.54-5.96-1.3-3.63-.19-7.71,2.78-10.17s7.25-2.71,10.5-.73c3.21,1.95,4.94,5.83,4.19,9.53-.86,4.24-4.61,7.3-8.93,7.33-1.04,0-1.04,1.62,0,1.61,4.49-.04,8.51-2.85,10.07-7.07,1.55-4.19.18-9.12-3.29-11.93-3.48-2.82-8.48-3.22-12.33-.88-3.83,2.33-5.8,6.88-4.95,11.27.96,4.98,5.48,8.56,10.5,8.6,1.04,0,1.04-1.61,0-1.61Z"/>
            </g>
          </g>
          <g>
            <polygon class="cls-1" points="111.67 68.71 114.7 62.85 117.7 64.99 115.31 69.12 111.67 68.71"/>
            <path class="cls-1" d="M115.46,69.4l-4.2-.47,3.35-6.49,3.45,2.46-2.6,4.49ZM112.09,68.49l3.07.34,2.18-3.77-2.54-1.81-2.71,5.24Z"/>
          </g>
          <g>
            <polygon class="cls-1" points="122.38 88.92 125.41 83.06 128.4 85.19 126.02 89.32 122.38 88.92"/>
            <path class="cls-1" d="M126.16,89.61l-4.2-.47,3.35-6.49,3.45,2.46-2.6,4.49ZM122.8,88.69l3.07.34,2.18-3.77-2.54-1.81-2.71,5.24Z"/>
          </g>
          <g>
            <path class="cls-3" d="M118.91,75.42c0-.98.18-1.91.49-2.78-3.09-1.21-5.29-4.21-5.29-7.73,0-.58.06-1.14.17-1.68-1.01.43-7.42,2.09-9.69-6.51-.88-3.33.22-7.5,3.2-8.76-6.9-5.05-15.4-8.04-24.6-8.04-23.03,0-41.7,18.67-41.7,41.7s18.67,41.7,41.7,41.7,40.74-17.74,41.65-39.96c-3.43-1.02-5.93-4.19-5.93-7.95ZM85.3,88.52c-5.47,0-9.9-4.43-9.9-9.9s4.43-9.9,9.9-9.9,9.9,4.43,9.9,9.9-4.43,9.9-9.9,9.9Z"/>
            <g>
              <path class="cls-1" d="M119.72,75.42c.01-.89.17-1.72.46-2.56.15-.45-.18-.84-.56-.99-3.32-1.33-5.23-4.92-4.55-8.41.14-.74-.53-1.19-1.19-.91.32-.14-.03,0-.11.03-.14.05-.29.08-.43.12-.17.04-.34.07-.52.1-.09.01.06,0-.13.02-.12.01-.25.02-.37.03-1.02.06-1.94-.06-2.88-.51-3.05-1.44-4.55-5.52-4.29-8.71.17-2.03,1.12-4.1,3.06-4.96.61-.27.43-1.08,0-1.39-7.24-5.27-16.05-8.15-25.01-8.15-7.22,0-14.39,1.85-20.69,5.37-6.14,3.43-11.4,8.4-15.18,14.33-3.87,6.06-6.13,13.09-6.56,20.27-.44,7.28,1.03,14.62,4.22,21.18,3.07,6.31,7.74,11.79,13.43,15.89,5.8,4.19,12.64,6.81,19.73,7.67,7.33.88,14.85-.19,21.65-3.07,6.46-2.74,12.21-7.1,16.58-12.58s7.52-12.32,8.71-19.4c.3-1.79.49-3.59.57-5.4.02-.36-.26-.68-.59-.78-3.16-.97-5.3-3.87-5.34-7.17-.01-1.04-1.63-1.04-1.61,0,.04,4.03,2.68,7.54,6.53,8.73l-.59-.78c-.3,6.99-2.39,13.83-6.08,19.78-3.57,5.76-8.56,10.59-14.44,13.96-6.06,3.48-12.98,5.35-19.98,5.41-7,.06-13.96-1.68-20.09-5.06-5.89-3.26-10.96-7.96-14.61-13.62-3.75-5.79-6-12.51-6.45-19.4-.47-7.02.85-14.13,3.91-20.48,2.92-6.07,7.34-11.4,12.79-15.37,5.54-4.03,12.08-6.68,18.88-7.52,8.29-1.03,16.82.45,24.22,4.36,1.81.95,3.54,2.04,5.19,3.24v-1.39c-2.02.89-3.25,2.95-3.68,5.05-.48,2.33-.07,4.63.85,6.8,1.3,3.03,3.86,5.32,7.27,5.34.97,0,1.96-.15,2.86-.53l-1.19-.91c-.85,4.43,1.5,8.72,5.68,10.4-.19-.33-.38-.66-.56-.99-.33.97-.5,1.97-.52,2.99s1.6,1.04,1.61,0Z"/>
              <path class="cls-1" d="M85.3,87.71c-3.76-.03-7.26-2.39-8.54-5.96-1.3-3.63-.19-7.71,2.78-10.17,2.93-2.44,7.25-2.71,10.5-.73,3.21,1.95,4.94,5.83,4.19,9.53-.86,4.24-4.61,7.3-8.93,7.33-1.04,0-1.04,1.62,0,1.61,4.49-.04,8.51-2.85,10.07-7.07,1.55-4.19.18-9.12-3.29-11.93-3.48-2.82-8.48-3.22-12.33-.88-3.83,2.33-5.8,6.88-4.95,11.27.96,4.98,5.48,8.56,10.5,8.6,1.04,0,1.04-1.61,0-1.61Z"/>
            </g>
          </g>
        </g>
        <g>
          <path class="cls-1" d="M54.93,98.37c-.5.07-.79.93-.65,1.93.14,1,.65,1.75,1.15,1.68.5-.07.79-.93.65-1.93-.14-1-.65-1.75-1.15-1.68Z"/>
          <path class="cls-1" d="M63.97,111.82c.25.44,1.16.39,2.03-.11.87-.5,1.38-1.25,1.13-1.69-.25-.44-1.16-.39-2.03.11-.87.5-1.38,1.25-1.13,1.69Z"/>
          <path class="cls-1" d="M82.04,97.59c.25.44,1.16.39,2.03-.11.87-.5,1.38-1.25,1.13-1.69-.25-.44-1.16-.39-2.03.11-.87.5-1.38,1.25-1.13,1.69Z"/>
          <path class="cls-1" d="M65.21,101.83c.85.54,1.75.64,2.02.22.27-.42-.19-1.21-1.04-1.75-.85-.54-1.75-.64-2.02-.22-.27.42.19,1.21,1.04,1.75Z"/>
          <path class="cls-1" d="M55.91,89.17c-.08,1,.25,1.85.75,1.89.5.04.97-.74,1.06-1.74.08-1-.25-1.85-.75-1.89-.5-.04-.97.74-1.06,1.74Z"/>
          <path class="cls-1" d="M87.83,105.94c-.16-.48-1.06-.61-2.01-.29-.95.32-1.6.96-1.44,1.44.16.48,1.06.61,2.01.29.95-.32,1.6-.96,1.44-1.44Z"/>
          <path class="cls-1" d="M69.4,93.6c-.06,1,.3,1.84.8,1.87.5.03.96-.76,1.02-1.76.06-1-.3-1.84-.8-1.87-.5-.03-.96.76-1.02,1.76Z"/>
          <path class="cls-1" d="M77.02,114.26c-.86-.52-1.77-.59-2.03-.16-.26.43.23,1.2,1.09,1.72.86.52,1.77.59,2.03.16s-.23-1.2-1.09-1.72Z"/>
          <path class="cls-1" d="M91.88,97.32c.16.48,1.06.61,2.01.29s1.6-.96,1.44-1.44c-.16-.48-1.06-.61-2.01-.29-.95.32-1.6.96-1.44,1.44Z"/>
          <path class="cls-1" d="M96.95,112.21c.26.43,1.17.36,2.03-.16.86-.52,1.35-1.29,1.09-1.72-.26-.43-1.17-.36-2.03.16-.86.52-1.35,1.29-1.09,1.72Z"/>
          <path class="cls-1" d="M87.61,114.31c-.24.44.28,1.19,1.16,1.67.88.48,1.79.51,2.03.07.24-.44-.28-1.19-1.16-1.67-.88-.48-1.79-.51-2.03-.07Z"/>
          <path class="cls-1" d="M75.23,102.95c-.24.44.28,1.19,1.16,1.67.88.48,1.79.51,2.03.07.24-.44-.28-1.19-1.16-1.67-.88-.48-1.79-.51-2.03-.07Z"/>
          <path class="cls-1" d="M94.08,103.82c-.03.5.75.96,1.76,1.03,1,.07,1.84-.29,1.88-.79.03-.5-.75-.96-1.76-1.03-1-.07-1.84.29-1.88.79Z"/>
          <path class="cls-1" d="M112.03,85.81c.4.31,1.22-.09,1.83-.88.62-.79.79-1.69.4-2-.4-.31-1.22.09-1.83.88-.62.79-.79,1.69-.4,2Z"/>
          <path class="cls-1" d="M106.46,106.55c.32.39,1.21.18,1.98-.46s1.14-1.47.82-1.86c-.32-.39-1.21-.18-1.98.46-.77.64-1.14,1.47-.82,1.86Z"/>
          <path class="cls-1" d="M113.62,93.32c.16.99.69,1.73,1.19,1.65.5-.08.77-.95.61-1.94-.16-.99-.69-1.73-1.19-1.65-.5.08-.77.95-.61,1.94Z"/>
          <path class="cls-1" d="M101.5,88.87c.43.25,1.2-.25,1.7-1.12s.56-1.78.13-2.03-1.2.25-1.7,1.12-.56,1.78-.13,2.03Z"/>
          <path class="cls-1" d="M105.01,95.48c-.48-.14-1.1.54-1.37,1.51-.27.97-.1,1.86.39,2s1.1-.54,1.37-1.51c.27-.97.1-1.86-.39-2Z"/>
        </g>
      </g>
    </g>
  </g>
</svg>