<?xml version="1.0" encoding="UTF-8"?>
<svg id="Capa_2" data-name="Capa 2" xmlns="http://www.w3.org/2000/svg" viewBox="0 0 135.93 51.95">
  <defs>
    <style>
      .cls-1 {
        fill: #3c7abd;
      }

      .cls-1, .cls-2 {
        stroke-width: 0px;
      }

      .cls-2 {
        fill: #ffcc38;
      }
    </style>
  </defs>
  <g id="Capa_3" data-name="Capa 3">
    <g>
      <g>
        <g>
          <path class="cls-1" d="M60.93,24.21c-3.55,0-4.08-2.23-4.08-5.96,0-3.51-.22-5.45-.22-9.26,0-5.34.15-8.27,4.79-8.27s9.38,1.57,9.38,7.06c0,.99-.19,1.98-.75,2.82-.41.62-1.38.88-1.38,1.13,0,.22.22.44.86.84,1.79,1.17,2.92,3.07,2.92,5.38,0,5.56-4.64,6.26-10.62,6.26h-.9ZM63.14,5.84c-.41,0-.37.15-.41.66,0,.29-.04,1.65-.04,1.94,0,.37.07.55.41.55.86,0,1.79-.29,1.79-1.54,0-.7-1.01-1.61-1.76-1.61ZM62.8,17.8c0,.7.15.95.6.95,1.2,0,2.24-.77,2.24-1.76,0-1.32-1.05-2.3-2.39-2.3-.41,0-.49.26-.49,1.06s.04,1.28.04,2.05Z"/>
          <path class="cls-1" d="M80.67,1.23c6.77,0,9.57,10.98,9.57,17.96,0,2.05-.56,3.99-2.58,3.99-2.69,0-3.03-2.63-3.63-4.76-.26-.91-.86-1.24-1.79-1.24-.41,0-.86.04-1.38.15-.75.18-.79.4-.93,1.13-.56,2.3-.9,5.45-3.7,5.45-2.09,0-2.77-1.57-2.77-4.06,0-3.48,1.42-8.38,2.21-11.82.71-3.11,1.79-6.81,5.01-6.81ZM82.43,12.42c.52,0,.64-.11.64-.7,0-1.79-.67-3.84-1.27-3.84-.9,0-1.35,2.34-1.35,3.91,0,.29.11.44.6.51.41.07.9.11,1.38.11Z"/>
          <path class="cls-1" d="M104.41,8.33c-.56,0-3.07-.99-3.55-.99-2.43,0-3.66,3.81-3.66,5.93,0,2.23.67,4.87,3.14,4.87,1.08,0,2.09-.29,2.09-1.83,0-.88-3.03.22-3.03-3.11,0-2.41,1.57-2.82,3.85-2.82,3.44,0,4.67.62,4.67,4.57,0,4.83-1.5,9.44-7.85,9.44s-9.05-5.63-9.05-11.23,2.99-11.78,9.61-11.78c2.24,0,6.69,1.17,6.69,3.88,0,1.65-1.42,3.07-2.92,3.07Z"/>
          <path class="cls-1" d="M120.83,4.41c0,3.04-5.61.91-5.61,3.59,0,1.76,4.86,1.24,4.86,4.21,0,2.6-4.34,2.16-4.34,3.26,0,3.18,6.09-.11,6.09,4.28,0,3.37-3.4,4.17-6.66,4.17-5.68,0-5.91-5.56-5.91-11.31v-.59c0-5.38.11-10.61,6.06-10.61,2.47,0,5.5.15,5.5,3Z"/>
          <path class="cls-1" d="M123.4,18.24v-1.57c0-2.67-.41-5.34-.41-8.05,0-3.11.64-7.83,4-7.83,2.54,0,3.25,2.96,3.25,5.41,0,3.4-.45,7.13-.45,11.12,0,.73.9.88,1.91.88.71,0,1.46-.07,1.98-.07,1.2,0,2.24.33,2.24,2.49,0,3.37-4.45,3.55-7.33,3.55-3.93,0-5.2-2.23-5.2-5.93Z"/>
        </g>
        <g>
          <path class="cls-1" d="M70.52,31.25c0,7.28-7.36.83-7.36,8.53s8.06,2.61,8.06,8.3c0,2.27-2.67,3.64-5.38,3.64-6.27,0-9.26-4.7-9.26-10.99,0-9.29,5.31-12.51,9.33-12.51,2.44,0,4.61,1.06,4.61,3.03Z"/>
          <path class="cls-1" d="M87.14,33.87c0,3.94-2.21,4.13-2.21,5.87,0,2.39,2.98,5.99,2.98,10.04,0,.91-1.16,1.93-2.9,1.93-4.61,0-3.83-10.46-5.66-10.46-2.09,0,.54,10.42-3.6,10.42-3.06,0-3.33-3.41-3.33-5.95v-3.68c0-1.93.12-3.9.12-5.84,0-7.28,1.12-8.41,8.52-8.41,3.64,0,6.08,1.82,6.08,6.06ZM79.82,33.04c-.54,0-.77.08-.77.68,0,.38.04,1.55.08,1.89.04.27.08.34.19.34.74,0,2.13-1.14,2.13-2.01,0-.72-1.08-.91-1.63-.91Z"/>
          <path class="cls-1" d="M99.07,39.18c0-.87-.04-1.06-.04-1.93,0-4.13.12-8.98,2.75-8.98,3.29,0,3.33,3.22,3.33,6.1v.38c0,7.2-.08,16.98-7.67,16.98-8.06,0-8.79-5.87-8.79-13.38,0-1.71.15-3.41.15-5.15,0-2.62.31-4.93,3.49-4.93,2.83,0,2.94,3.71,2.94,6.37,0,1.17-.04,2.31-.04,3.64,0,2.77.23,4.06,1.9,4.06,1.78,0,1.98-1.1,1.98-3.15Z"/>
          <path class="cls-1" d="M110.07,51.95c-2.29,0-3.72-1.67-3.72-3.64,0-4.17,5.34-4.32,5.34-8,0-2.43-4.49-2.77-4.49-5.68,0-4.93,4.76-6.44,8.95-6.44,1.47,0,3.1.68,3.1,2.62,0,3.03-3.83,2.05-3.83,4.28,0,2.8,3.83,3.79,3.83,8.68,0,5.34-4.38,8.19-9.18,8.19Z"/>
          <path class="cls-1" d="M124.98,38.42c0-1.63,0-3.3-2.17-3.3-1.63,0-2.48-1.36-2.48-2.8,0-3.79,4.69-4.06,8.02-4.06s6.58.27,6.58,3.52c0,3.79-3.8,1.55-3.8,4.17,0,3.71.23,7.43.23,10.88,0,2.27-.39,4.89-3.45,4.89-2.59,0-3.02-4.06-3.02-6.06,0-2.5.08-4.7.08-7.24Z"/>
        </g>
      </g>
      <g>
        <g>
          <g>
            <path class="cls-1" d="M48.18,22.75c0-.58.1-1.13.29-1.64-1.83-.71-3.13-2.49-3.13-4.57,0-.34.04-.67.1-.99-.59.26-4.15-1.45-5.2-4.01-.77-1.88-.41-4.27,1.36-5.02-4.08-2.99-9.11-4.75-14.55-4.75C13.43,1.77,2.39,12.81,2.39,26.43s11.04,24.66,24.66,24.66,24.09-10.49,24.63-23.63c-2.03-.6-3.51-2.48-3.51-4.7ZM28.3,30.5c-3.23,0-5.86-2.62-5.86-5.86s2.62-5.86,5.86-5.86,5.86,2.62,5.86,5.86-2.62,5.86-5.86,5.86Z"/>
            <g>
              <path class="cls-1" d="M48.65,22.75c.01-.53.11-1.02.27-1.52.09-.27-.11-.49-.33-.59-1.97-.82-3.07-2.88-2.69-4.98.06-.33-.21-.71-.59-.59s-1.21-.4-1.57-.6c-.86-.49-1.67-1.12-2.3-1.89-1.28-1.55-1.81-4.64.4-5.67.36-.17.26-.64,0-.82C34.02.44,23.38-.26,14.92,4.41,7.47,8.51,2.52,16.31,1.97,24.8c-.56,8.58,3.43,16.97,10.37,22.01,7.02,5.1,16.47,6.16,24.46,2.79,7.84-3.31,13.65-10.59,15.04-19,.17-1.04.28-2.09.33-3.14,0-.21-.16-.4-.35-.46-1.88-.6-3.12-2.27-3.16-4.24-.01-.61-.97-.62-.95,0,.05,2.4,1.57,4.43,3.86,5.16l-.35-.46c-.37,8.23-4.97,15.84-12.12,19.95-7.26,4.18-16.45,4.25-23.77.17-7.13-3.97-11.9-11.46-12.4-19.62-.5-8.22,3.29-16.32,9.98-21.14,7.36-5.3,17.35-6.04,25.39-1.8,1.07.56,2.09,1.21,3.07,1.92v-.82c-2.58,1.19-2.34,4.8-.9,6.78.75,1.02,1.77,1.85,2.87,2.47.58.32,1.54.88,2.23.66l-.59-.59c-.48,2.65.87,5.12,3.36,6.15l-.33-.59c-.19.58-.29,1.16-.3,1.77s.94.61.95,0Z"/>
              <path class="cls-1" d="M28.3,30.02c-2.24-.03-4.3-1.42-5.06-3.55s-.09-4.55,1.65-5.99,4.25-1.6,6.17-.46,2.95,3.42,2.53,5.61c-.49,2.54-2.72,4.35-5.29,4.38-.61,0-.62.96,0,.95,2.63-.04,4.99-1.64,5.93-4.11s.16-5.43-1.9-7.11c-2.04-1.67-4.99-1.92-7.27-.56-2.27,1.36-3.45,4.02-2.98,6.61.54,2.99,3.23,5.12,6.22,5.16.61,0,.61-.95,0-.95Z"/>
            </g>
          </g>
          <polygon class="cls-1" points="42.01 17.28 43.8 13.82 45.57 15.08 44.16 17.52 42.01 17.28"/>
          <polygon class="cls-1" points="48.31 29.26 50.1 25.79 51.87 27.06 50.46 29.5 48.31 29.26"/>
          <g>
            <path class="cls-2" d="M46.26,21.43c0-.58.1-1.13.29-1.64-1.83-.71-3.13-2.49-3.13-4.57,0-.34.04-.67.1-.99-.59.26-4.39,1.23-5.73-3.85-.52-1.97.13-4.44,1.89-5.18C35.6,2.2,30.58.44,25.14.44,11.52.44.48,11.48.48,25.1s11.04,24.66,24.66,24.66,24.09-10.49,24.63-23.63c-2.03-.6-3.51-2.48-3.51-4.7ZM26.39,29.17c-3.23,0-5.86-2.62-5.86-5.86s2.62-5.86,5.86-5.86,5.86,2.62,5.86,5.86-2.62,5.86-5.86,5.86Z"/>
            <g>
              <path class="cls-1" d="M46.74,21.43c.01-.53.11-1.02.27-1.52.09-.27-.11-.49-.33-.59-1.97-.82-3.07-2.88-2.69-4.98.06-.31-.22-.74-.59-.59-1.23.51-2.74.19-3.68-.73-1.82-1.78-2.58-6.14.21-7.43.36-.16.26-.64,0-.82C32.11-.89,21.47-1.59,13,3.08,5.55,7.19.61,14.98.05,23.47c-.56,8.58,3.43,16.97,10.37,22.01s16.47,6.16,24.46,2.79c7.84-3.31,13.65-10.59,15.04-19,.17-1.04.28-2.09.33-3.14,0-.21-.16-.4-.35-.46-1.88-.6-3.12-2.27-3.16-4.24-.01-.61-.97-.62-.95,0,.05,2.4,1.57,4.43,3.86,5.16l-.35-.46c-.37,8.23-4.97,15.84-12.12,19.95-7.26,4.18-16.45,4.25-23.77.17-7.13-3.97-11.9-11.46-12.4-19.62C.5,18.4,4.29,10.31,10.98,5.48,18.34.19,28.33-.56,36.37,3.68c1.07.56,2.09,1.21,3.07,1.92v-.82c-3.24,1.49-2.64,6.31-.71,8.6,1.15,1.36,3.22,2.01,4.92,1.31l-.59-.59c-.48,2.65.87,5.12,3.36,6.15l-.33-.59c-.19.58-.29,1.16-.3,1.77s.94.61.95,0Z"/>
              <path class="cls-1" d="M26.39,28.69c-2.24-.03-4.3-1.42-5.06-3.55-.76-2.13-.09-4.55,1.65-5.99,1.73-1.43,4.25-1.6,6.17-.46,1.91,1.14,2.95,3.42,2.53,5.61-.49,2.54-2.72,4.35-5.29,4.38-.61,0-.62.96,0,.95,2.63-.04,4.99-1.64,5.93-4.11s.16-5.43-1.9-7.11c-2.04-1.67-4.99-1.92-7.27-.56s-3.45,4.02-2.98,6.61c.54,2.99,3.23,5.12,6.22,5.16.61,0,.61-.95,0-.95Z"/>
            </g>
          </g>
        </g>
        <g>
          <path class="cls-1" d="M8.42,35c-.29.04-.47.55-.39,1.14.08.59.39,1.03.68.99.29-.04.47-.55.39-1.14-.08-.59-.39-1.03-.68-.99Z"/>
          <path class="cls-1" d="M13.77,42.95c.15.26.68.23,1.2-.07.52-.29.82-.74.67-1-.15-.26-.68-.23-1.2.07-.52.29-.82.74-.67,1Z"/>
          <path class="cls-1" d="M24.45,34.53c.15.26.68.23,1.2-.07.52-.29.82-.74.67-1-.15-.26-.68-.23-1.2.07-.52.29-.82.74-.67,1Z"/>
          <path class="cls-1" d="M14.5,37.04c.5.32,1.04.38,1.2.13.16-.25-.11-.71-.61-1.03s-1.04-.38-1.2-.13c-.16.25.11.71.61,1.03Z"/>
          <path class="cls-1" d="M9,29.55c-.05.59.15,1.09.45,1.12.3.02.58-.44.63-1.03.05-.59-.15-1.09-.45-1.12-.3-.02-.58.44-.63,1.03Z"/>
          <path class="cls-1" d="M27.88,39.47c-.09-.28-.63-.36-1.19-.17s-.94.57-.85.85c.09.28.63.36,1.19.17.56-.19.94-.57.85-.85Z"/>
          <path class="cls-1" d="M16.98,32.18c-.04.59.18,1.09.47,1.11.3.02.57-.45.6-1.04.04-.59-.18-1.09-.47-1.11-.3-.02-.57.45-.6,1.04Z"/>
          <path class="cls-1" d="M21.49,44.39c-.51-.31-1.05-.35-1.2-.09s.14.71.64,1.02c.51.31,1.05.35,1.2.09s-.14-.71-.64-1.02Z"/>
          <path class="cls-1" d="M30.27,34.37c.09.28.63.36,1.19.17s.94-.57.85-.85c-.09-.28-.63-.36-1.19-.17-.56.19-.94.57-.85.85Z"/>
          <path class="cls-1" d="M33.27,43.18c.15.25.69.21,1.2-.09.51-.31.8-.76.64-1.02-.15-.25-.69-.21-1.2.09-.51.31-.8.76-.64,1.02Z"/>
          <path class="cls-1" d="M27.75,44.42c-.14.26.17.7.69.99.52.28,1.06.3,1.2.04.14-.26-.17-.7-.69-.99-.52-.28-1.06-.3-1.2-.04Z"/>
          <path class="cls-1" d="M20.43,37.7c-.14.26.17.7.69.99.52.28,1.06.3,1.2.04.14-.26-.17-.7-.69-.99-.52-.28-1.06-.3-1.2-.04Z"/>
          <path class="cls-1" d="M31.58,38.22c-.02.3.45.57,1.04.61.59.04,1.09-.17,1.11-.47.02-.3-.45-.57-1.04-.61-.59-.04-1.09.17-1.11.47Z"/>
          <path class="cls-1" d="M42.19,27.57c.23.18.72-.05,1.08-.52s.47-1,.23-1.18c-.23-.18-.72.05-1.08.52-.36.47-.47,1-.23,1.18Z"/>
          <path class="cls-1" d="M38.89,39.83c.19.23.71.11,1.17-.27.46-.38.68-.87.49-1.1-.19-.23-.71-.11-1.17.27-.46.38-.68.87-.49,1.1Z"/>
          <path class="cls-1" d="M43.13,32.01c.1.59.41,1.02.7.98.29-.05.45-.56.36-1.15-.1-.59-.41-1.02-.7-.98-.29.05-.45.56-.36,1.15Z"/>
          <path class="cls-1" d="M35.96,29.38c.26.15.71-.15,1.01-.66s.33-1.05.08-1.2-.71.15-1.01.66-.33,1.05-.08,1.2Z"/>
          <path class="cls-1" d="M38.04,33.28c-.29-.08-.65.32-.81.89-.16.57-.06,1.1.23,1.18s.65-.32.81-.89c.16-.57.06-1.1-.23-1.18Z"/>
        </g>
      </g>
    </g>
  </g>
</svg>