<?xml version="1.0" encoding="UTF-8"?>
<svg id="Capa_2" data-name="Capa 2" xmlns="http://www.w3.org/2000/svg" viewBox="0 0 121.9 133.22">
  <defs>
    <style>
      .cls-1 {
        fill: #3c7abd;
      }

      .cls-1, .cls-2 {
        stroke-width: 0px;
      }

      .cls-2 {
        fill: #ffcc38;
      }
    </style>
  </defs>
  <g id="Capa_3" data-name="Capa 3">
    <g>
      <g>
        <g>
          <path class="cls-1" d="M29.53,52.62c-2.3,4.3-5.34,3.5-9.86,1.08-4.26-2.27-6.75-3.25-11.36-5.71-6.47-3.45-9.92-5.53-6.92-11.14,2.9-5.44,7.97-10.35,14.62-6.81,1.2.64,2.27,1.5,2.93,2.73.49.9.17,2.24.48,2.41.27.14.68.01,1.58-.5,2.58-1.42,5.61-1.55,8.4-.06,6.74,3.6,4.58,9.66.72,16.91-.19.36-.39.72-.58,1.09ZM8.71,38.08c-.27.5-.06.55.53.92.35.19,1.97,1.11,2.32,1.3.44.24.71.26.93-.14.56-1.04.8-2.36-.7-3.17-.84-.45-2.6.18-3.09,1.09ZM22.98,46.22c.84.45,1.25.43,1.54-.11.77-1.45.52-3.21-.68-3.85-1.6-.85-3.47-.22-4.34,1.41-.27.5,0,.75.97,1.27,1.02.54,1.58.78,2.51,1.28Z"/>
          <path class="cls-1" d="M28.69,7.85c8.2-4.38,18.7,7.09,23.23,15.55,1.33,2.48,1.9,5.19-.54,6.5-3.26,1.74-5.37-1.23-7.47-3.41-.91-.94-1.85-.95-2.98-.34-.5.27-1.02.6-1.58,1.07-.79.71-.69,1-.4,1.98.81,3.15,2.44,7.18-.95,9-2.54,1.36-4.37-.11-5.98-3.13-2.25-4.21-3.71-11.06-4.98-15.74-1.15-4.23-2.24-9.4,1.66-11.49ZM38.07,20.27c.63-.34.7-.54.32-1.25-1.16-2.17-3.3-4.22-4.03-3.83-1.09.58-.11,3.71.91,5.61.19.35.42.46,1.06.23.55-.18,1.16-.45,1.75-.76Z"/>
          <path class="cls-1" d="M72.6,10.04c-.77-.07-4.07-1.74-4.73-1.8-3.32-.31-5.49,4.74-5.76,7.64-.28,3.05.3,6.74,3.68,7.05,1.48.14,2.9-.14,3.09-2.24.11-1.2-4.17-.08-3.75-4.64.31-3.3,2.5-3.65,5.62-3.36,4.7.43,6.31,1.44,5.81,6.85-.61,6.6-3.24,12.72-11.93,11.92-8.59-.8-11.66-8.85-10.95-16.51.69-7.45,5.58-15.73,14.63-14.89,3.07.28,9,2.45,8.66,6.15-.21,2.25-2.33,4.02-4.38,3.83Z"/>
          <path class="cls-1" d="M102.43,19.5c-2.41,3.4-7.01-3.42-9.13-.43-1.39,1.97,4.46,5.25,2.11,8.57-2.06,2.91-6.57-1.02-7.45.21-2.53,3.57,6.92,4.71,3.44,9.63-2.67,3.77-7.12,1.98-10.77-.6-6.37-4.51-2.21-10.92,2.35-17.36.14-.2.32-.45.46-.66,4.27-6.03,8.54-11.81,15.21-7.09,2.77,1.96,6.04,4.52,3.78,7.72Z"/>
          <path class="cls-1" d="M94.88,38.59c.61-.34,1.27-.71,1.89-1.06,3.2-1.79,6.12-4.08,9.37-5.9,3.73-2.09,9.81-4.5,12.07-.46,1.71,3.04-1.37,5.89-4.3,7.53-4.08,2.28-8.85,4.25-13.63,6.93-.88.49-.45,1.66.23,2.87.48.85,1.07,1.7,1.42,2.32.8,1.43,1.11,2.91-1.47,4.36-4.03,2.26-7.24-2.95-9.17-6.4-2.64-4.7-.82-7.73,3.61-10.21Z"/>
        </g>
        <g>
          <path class="cls-1" d="M32.14,94.56c-8.08,5.26-6.25-7.57-14.79-2.01-8.8,5.73,2.92,10.84-3.4,14.95-2.53,1.64-5.97-.34-7.94-3.35-4.54-6.97-1.47-13.68,5.52-18.23,10.32-6.71,17.73-3.15,20.64,1.33,1.76,2.71,2.15,5.89-.03,7.31Z"/>
          <path class="cls-1" d="M48.85,108.25c-2.52,4.58-5.2,3.39-6.31,5.42-1.52,2.77-.36,8.86-2.95,13.57-.58,1.06-2.58,1.5-4.61.39-5.35-2.94,2.22-14.6.1-15.76-2.43-1.33-6.02,12.45-10.84,9.81-3.55-1.95-1.69-6.09-.07-9.04.82-1.5,1.55-2.82,2.35-4.27,1.23-2.25,2.63-4.46,3.86-6.71,4.64-8.45,6.67-9.06,15.27-4.34,4.23,2.32,5.9,5.99,3.19,10.93ZM40.87,102.61c-.63-.35-.95-.41-1.34.3-.24.44-.95,1.83-1.12,2.25-.12.33-.13.45,0,.52.86.47,3.2.04,3.76-.97.46-.84-.68-1.75-1.31-2.1Z"/>
          <path class="cls-1" d="M65.4,116.63c.02-1.16-.02-1.41,0-2.56.1-5.47.38-11.9,3.87-11.84,4.36.08,4.33,4.35,4.26,8.17,0,.15,0,.35-.01.5-.18,9.54-.53,22.5-10.59,22.31-10.68-.2-11.51-8-11.32-17.95.04-2.26.29-4.52.33-6.83.07-3.47.53-6.52,4.74-6.44,3.75.07,3.81,5,3.74,8.51-.03,1.56-.11,3.06-.14,4.82-.07,3.67.21,5.38,2.41,5.42,2.36.04,2.65-1.41,2.7-4.12Z"/>
          <path class="cls-1" d="M91.15,128.3c-2.72,1.33-5.4.18-6.55-2.17-2.43-4.97,3.85-8.26,1.71-12.64-1.41-2.89-6.96-.68-8.66-4.16-2.87-5.87,1.92-10.45,6.91-12.88,1.75-.86,4.09-.99,5.21,1.31,1.76,3.61-3.37,4.67-2.07,7.33,1.63,3.34,6.77,2.28,9.62,8.11,3.11,6.37-.45,12.3-6.17,15.09Z"/>
          <path class="cls-1" d="M101.94,98.57c-1.79-1.21-3.62-2.45-5.23-.07-1.21,1.79-3.34,1.71-4.92.64-4.16-2.82-.97-8.16,1.5-11.82,2.42-3.57,5.18-7.03,8.76-4.61,4.16,2.82-1.11,5.32,1.76,7.26,4.08,2.76,8.33,5.26,12.11,7.83,2.5,1.69,5.08,4.06,2.81,7.42-1.93,2.85-6.7.3-8.9-1.19-2.75-1.86-5.1-3.58-7.89-5.46Z"/>
        </g>
        <g>
          <path class="cls-1" d="M5.08,64.67c0-1.66.07-4.13.13-4.72.03-.28.1-.42.31-.42.23,0,.61.05.78.29.45.7,1.62,3.43,2.25,5.19-.14-2.56-.22-4.76-.22-5.18,0-.2.06-.32.29-.32.33,0,.77.15.8.43.02.26.02.75.02,1.25,0,1.76-.1,4.63-.14,5.14-.02.18-.11.32-.3.32s-.61-.02-.78-.27c-.58-.94-1.69-3.46-2.27-5.29.09,1.73.19,4.74.19,5.2,0,.23-.11.35-.31.35-.19,0-.66-.11-.73-.4-.02-.2-.02-.79-.02-1.57Z"/>
          <path class="cls-1" d="M10.45,65.95c0-.49.36-.84.91-.84.58,0,.78.38.78.69,0,.55-.35.88-.87.88s-.83-.34-.83-.73Z"/>
          <path class="cls-1" d="M12.27,59.49c.17,0,.57.07.69.3.23.45.97,2.42,1.39,3.96.4-1.47.97-3.29,1.18-3.92.08-.21.13-.32.29-.32.25,0,.62.14.62.36,0,.55-1.08,3.43-1.62,4.69-.01.58-.07,1.4-.08,1.62-.02.32-.08.49-.36.49-.31,0-.67-.08-.69-.36-.01-.21-.02-.99-.01-1.65-.52-1.12-1.7-4.34-1.7-4.87,0-.19.08-.29.3-.29Z"/>
          <path class="cls-1" d="M15.99,65.95c0-.49.36-.84.91-.84.58,0,.78.38.78.69,0,.55-.35.88-.87.88s-.83-.34-.83-.73Z"/>
          <path class="cls-1" d="M2.42,75.43c.45,0,.73-.21.73-.57,0-.9-3.05-.94-3.05-2.99,0-1.47.79-2.68,2.1-2.68s1.69,1.26,1.69,2.39c0,.32-.32.7-.78.7-.13,0-.25-.1-.25-.26-.02-1.2-.33-1.86-.79-1.86s-.8.58-.8,1.6c0,1.3,2.93,1.31,2.93,3,0,1.04-.93,1.65-2.02,1.65-1.29,0-2.17-.5-2.17-.86,0-.39.19-.76.4-.76.3,0,1.16.65,2.03.65Z"/>
          <path class="cls-1" d="M4.53,69.8c0-.15.07-.27.36-.35.42-.08,1.51-.21,2.84-.21.48,0,.82.35.82.65,0,.17-.19.24-.71.32-.19.03-.43.05-.68.08.07,1.55-.04,5.08-.08,5.64-.02.26-.09.41-.36.41-.35,0-.64-.1-.67-.37-.07-.5-.11-3.62-.07-5.6-.36.01-.72.03-.99.03s-.46-.47-.46-.6Z"/>
          <path class="cls-1" d="M9.34,69.19c.17,0,.57.07.69.3.23.45.97,2.42,1.39,3.96.4-1.47.97-3.29,1.18-3.92.08-.21.13-.32.29-.32.25,0,.62.14.62.36,0,.55-1.08,3.43-1.62,4.69-.01.58-.07,1.4-.08,1.62-.02.32-.08.49-.36.49-.31,0-.67-.08-.69-.36-.01-.21-.02-.99-.01-1.65-.52-1.12-1.7-4.34-1.7-4.87,0-.19.08-.29.3-.29Z"/>
          <path class="cls-1" d="M14.88,69.24c.28,0,.72.11.76.38.12.85.04,4.36-.01,5.78.65-.03,1.31-.06,1.61-.06.35,0,.61.29.61.62,0,.2-.11.24-.45.31-.17.03-.95.08-1.58.08-.23,0-.42,0-.58-.01-.34,0-.63-.1-.67-.37-.07-.56-.11-4.58-.03-6.42.01-.18.11-.31.35-.31Z"/>
          <path class="cls-1" d="M18.25,69.79c0-.15.07-.27.36-.35.43-.08,1.58-.2,2.94-.2.48,0,.83.33.83.61,0,.18-.19.27-.73.35-.45.06-1.15.13-1.82.17.02.61.02,1.48.01,2.34.56-.08,1.19-.14,1.48-.14s.57.3.57.52-.08.29-.28.31c-.24.02-1.12.06-1.8.08-.01.76-.03,1.47-.05,1.97.67-.07,1.36-.13,1.84-.13.42,0,.89.82.41.89-.25.04-1.69.17-2.56.17-.25,0-.73-.19-.79-.49-.06-.3-.08-3.55-.01-5.48h-.03c-.22,0-.37-.49-.37-.62Z"/>
        </g>
        <g>
          <path class="cls-1" d="M101.16,66.64c-.35-.01-.64-.1-.68-.37-.06-.5-.1-3.64-.06-5.61h-.11c-.21,0-.41-.52-.41-.68,0-.4,1.6-.53,2.26-.53,1.64,0,2.29.71,2.29,2.34,0,2.04-1,2.9-1.94,2.91-.36,0-.74-.07-.93-.2-.02.83-.05,1.5-.07,1.72-.02.26-.08.42-.36.41ZM103.31,61.92c0-1.15-.35-1.48-1.11-1.48-.2,0-.4.02-.61.05.04.76.03,2.13.01,3.35.14.01.33.04.62.04.58,0,1.09-.59,1.09-1.97Z"/>
          <path class="cls-1" d="M105.43,60.09c0-.15.07-.27.36-.35.43-.08,1.58-.2,2.94-.2.48,0,.83.33.83.61,0,.18-.19.27-.73.35-.45.06-1.15.13-1.82.17.02.61.02,1.48.01,2.34.56-.08,1.19-.14,1.48-.14s.57.3.57.52-.08.29-.28.31c-.24.02-1.12.06-1.8.08-.01.76-.03,1.47-.06,1.97.67-.07,1.36-.13,1.84-.13.42,0,.89.82.41.89-.25.04-1.69.17-2.56.17-.25,0-.73-.19-.79-.49-.06-.3-.08-3.55-.01-5.48h-.03c-.22,0-.37-.49-.37-.62Z"/>
          <path class="cls-1" d="M110.74,64.67c0-1.66.07-4.13.13-4.72.03-.28.1-.42.31-.42.23,0,.61.05.78.29.45.7,1.62,3.43,2.25,5.19-.14-2.56-.22-4.76-.22-5.18,0-.2.06-.32.29-.32.33,0,.77.15.8.43.02.26.02.75.02,1.25,0,1.76-.1,4.63-.14,5.14-.02.18-.11.32-.3.32s-.61-.02-.78-.27c-.58-.94-1.69-3.46-2.27-5.29.09,1.73.19,4.74.19,5.2,0,.23-.11.35-.31.35-.19,0-.66-.11-.73-.4-.02-.2-.02-.79-.02-1.57Z"/>
          <path class="cls-1" d="M116.75,64.67c0-1.66.07-4.13.13-4.72.03-.28.1-.42.31-.42.23,0,.61.05.78.29.45.7,1.62,3.43,2.25,5.19-.14-2.56-.22-4.76-.22-5.18,0-.2.06-.32.29-.32.33,0,.77.15.8.43.02.26.02.75.02,1.25,0,1.76-.1,4.63-.14,5.14-.02.18-.11.32-.3.32s-.61-.02-.78-.27c-.58-.94-1.69-3.46-2.27-5.29.09,1.73.19,4.74.19,5.2,0,.23-.11.35-.31.35-.19,0-.66-.11-.73-.4-.02-.2-.02-.79-.02-1.57Z"/>
          <path class="cls-1" d="M102.09,75.43c.45,0,.73-.21.73-.57,0-.9-3.05-.94-3.05-2.99,0-1.47.79-2.68,2.1-2.68s1.69,1.26,1.69,2.39c0,.32-.32.7-.78.7-.13,0-.25-.1-.25-.26-.02-1.2-.33-1.86-.79-1.86s-.8.58-.8,1.6c0,1.3,2.93,1.31,2.93,3,0,1.04-.93,1.65-2.02,1.65-1.29,0-2.17-.5-2.17-.86,0-.39.19-.76.4-.76.3,0,1.16.65,2.03.65Z"/>
          <path class="cls-1" d="M104.19,69.8c0-.15.07-.27.36-.35.42-.08,1.51-.21,2.84-.21.48,0,.82.35.82.65,0,.17-.19.24-.71.32-.19.03-.43.05-.68.08.07,1.55-.04,5.08-.08,5.64-.02.26-.09.41-.36.41-.35,0-.64-.1-.67-.37-.07-.5-.11-3.62-.07-5.6-.36.01-.72.03-.99.03s-.46-.47-.46-.6Z"/>
          <path class="cls-1" d="M112.89,76.06c0,.2-.07.33-.33.33-.3,0-.54-.1-.67-.33-.1-.19-.23-.7-.4-1.38-.42.04-1.21.13-1.86.18-.11.5-.2.9-.26,1.15-.07.26-.12.37-.31.37-.23,0-.61-.17-.61-.39s.06-.62.15-1.11c-.21-.07-.37-.35-.37-.55-.01-.13.04-.22.15-.24.11-.01.24-.03.4-.04.34-1.53.9-3.49,1.27-4.5.11-.29.19-.36.39-.36.34,0,.69.11.83.43.54,1.25,1.63,5.92,1.63,6.43ZM111.33,73.98c-.25-1.13-.53-2.53-.77-3.67-.23,1.18-.51,2.56-.75,3.69.56-.01,1.12-.02,1.52-.02Z"/>
          <path class="cls-1" d="M113,69.8c0-.15.07-.27.36-.35.42-.08,1.51-.21,2.84-.21.48,0,.82.35.82.65,0,.17-.19.24-.71.32-.19.03-.43.05-.68.08.07,1.55-.04,5.08-.08,5.64-.02.26-.09.41-.36.41-.35,0-.64-.1-.67-.37-.07-.5-.11-3.62-.07-5.6-.36.01-.72.03-.99.03s-.46-.47-.46-.6Z"/>
          <path class="cls-1" d="M117.76,69.79c0-.15.07-.27.36-.35.43-.08,1.58-.2,2.94-.2.48,0,.83.33.83.61,0,.18-.19.27-.73.35-.45.06-1.15.13-1.82.17.02.61.02,1.48.01,2.34.56-.08,1.19-.14,1.48-.14s.57.3.57.52-.08.29-.28.31c-.24.02-1.12.06-1.8.08-.01.76-.03,1.47-.06,1.97.67-.07,1.36-.13,1.84-.13.42,0,.89.82.41.89-.25.04-1.69.17-2.56.17-.25,0-.73-.19-.79-.49-.06-.3-.08-3.55-.01-5.48h-.03c-.22,0-.37-.49-.37-.62Z"/>
        </g>
      </g>
      <g>
        <g>
          <g>
            <path class="cls-1" d="M81.93,63.93c0-.51.09-1,.26-1.46-1.62-.63-2.78-2.21-2.78-4.06,0-.3.03-.6.09-.88-.53.23-3.68-1.29-4.61-3.56-.68-1.67-.36-3.79,1.21-4.45-3.62-2.65-8.08-4.22-12.91-4.22-12.09,0-21.89,9.8-21.89,21.89s9.8,21.89,21.89,21.89,21.39-9.31,21.87-20.97c-1.8-.53-3.11-2.2-3.11-4.17ZM64.29,70.81c-2.87,0-5.2-2.33-5.2-5.2s2.33-5.2,5.2-5.2,5.2,2.33,5.2,5.2-2.33,5.2-5.2,5.2Z"/>
            <g>
              <path class="cls-1" d="M82.35,63.93c.01-.47.09-.9.24-1.35.08-.24-.09-.44-.3-.52-1.75-.73-2.72-2.56-2.39-4.42.05-.3-.19-.63-.52-.52s-1.07-.35-1.39-.53c-.77-.44-1.48-1-2.04-1.68-1.13-1.38-1.61-4.12.36-5.03.32-.15.23-.56,0-.73-6.94-5.03-16.38-5.65-23.9-1.51-6.61,3.65-11,10.57-11.5,18.1-.5,7.61,3.04,15.06,9.21,19.54,6.23,4.52,14.62,5.47,21.71,2.48,6.96-2.94,12.12-9.4,13.35-16.87.15-.92.25-1.85.29-2.79,0-.19-.14-.35-.31-.41-1.67-.53-2.77-2.02-2.8-3.76-.01-.54-.86-.55-.85,0,.04,2.13,1.4,3.93,3.43,4.58l-.31-.41c-.33,7.3-4.42,14.06-10.76,17.71s-14.6,3.77-21.1.15c-6.33-3.52-10.57-10.18-11.01-17.42-.45-7.3,2.92-14.49,8.86-18.77,6.53-4.7,15.4-5.36,22.53-1.6.95.5,1.86,1.07,2.73,1.7v-.73c-2.29,1.06-2.08,4.26-.8,6.02.66.91,1.57,1.65,2.55,2.19.51.29,1.36.78,1.98.58l-.52-.52c-.42,2.35.77,4.55,2.98,5.46l-.3-.52c-.17.51-.26,1.03-.27,1.57s.83.55.85,0Z"/>
              <path class="cls-1" d="M64.29,70.38c-1.99-.03-3.82-1.26-4.49-3.15-.68-1.89-.08-4.04,1.47-5.32,1.54-1.27,3.77-1.42,5.48-.4,1.7,1.01,2.62,3.04,2.25,4.98-.43,2.25-2.42,3.86-4.69,3.89-.54,0-.55.85,0,.85,2.33-.03,4.43-1.46,5.26-3.65.84-2.21.14-4.82-1.69-6.31s-4.43-1.7-6.45-.49c-2.02,1.2-3.06,3.57-2.65,5.87.48,2.65,2.87,4.55,5.52,4.58.55,0,.55-.84,0-.85Z"/>
            </g>
          </g>
          <polygon class="cls-1" points="76.45 59.07 78.04 56 79.62 57.12 78.36 59.29 76.45 59.07"/>
          <polygon class="cls-1" points="82.05 69.71 83.64 66.63 85.21 67.75 83.96 69.92 82.05 69.71"/>
          <g>
            <path class="cls-2" d="M80.23,62.75c0-.51.09-1,.26-1.46-1.62-.63-2.78-2.21-2.78-4.06,0-.3.03-.6.09-.88-.53.23-3.89,1.1-5.09-3.42-.46-1.75.11-3.94,1.68-4.6-3.62-2.65-8.08-4.22-12.91-4.22-12.09,0-21.89,9.8-21.89,21.89s9.8,21.89,21.89,21.89,21.39-9.31,21.87-20.97c-1.8-.53-3.11-2.2-3.11-4.17ZM62.58,69.63c-2.87,0-5.2-2.33-5.2-5.2s2.33-5.2,5.2-5.2,5.2,2.33,5.2,5.2-2.33,5.2-5.2,5.2Z"/>
            <g>
              <path class="cls-1" d="M80.65,62.75c.01-.47.09-.9.24-1.35.08-.24-.09-.44-.3-.52-1.75-.73-2.72-2.56-2.39-4.42.05-.28-.19-.66-.52-.52-1.09.45-2.44.17-3.27-.65-1.62-1.58-2.29-5.45.19-6.59.32-.15.23-.57,0-.73-6.94-5.03-16.38-5.65-23.9-1.51-6.61,3.65-11,10.57-11.5,18.1-.5,7.61,3.04,15.06,9.21,19.54,6.23,4.52,14.62,5.47,21.71,2.48,6.96-2.94,12.12-9.4,13.35-16.87.15-.92.25-1.85.29-2.79,0-.19-.14-.35-.31-.41-1.67-.53-2.77-2.02-2.8-3.76-.01-.54-.86-.55-.85,0,.04,2.13,1.4,3.93,3.43,4.58l-.31-.41c-.33,7.3-4.42,14.06-10.76,17.71-6.45,3.71-14.6,3.77-21.1.15-6.33-3.52-10.57-10.18-11.01-17.42-.45-7.3,2.92-14.49,8.86-18.77,6.53-4.7,15.4-5.36,22.53-1.6.95.5,1.86,1.07,2.73,1.7v-.73c-2.88,1.32-2.34,5.6-.63,7.63,1.02,1.21,2.86,1.78,4.36,1.16l-.52-.52c-.42,2.35.77,4.55,2.98,5.46l-.3-.52c-.17.51-.26,1.03-.27,1.57s.83.55.85,0Z"/>
              <path class="cls-1" d="M62.58,69.2c-1.99-.03-3.82-1.26-4.49-3.15-.68-1.89-.08-4.04,1.47-5.32,1.54-1.27,3.77-1.42,5.48-.4,1.7,1.01,2.62,3.04,2.25,4.98-.43,2.25-2.42,3.86-4.69,3.89-.54,0-.55.85,0,.85,2.33-.03,4.43-1.46,5.26-3.65.84-2.21.14-4.82-1.69-6.31s-4.43-1.7-6.45-.49c-2.02,1.2-3.06,3.57-2.65,5.87.48,2.65,2.87,4.55,5.52,4.58.55,0,.55-.84,0-.85Z"/>
            </g>
          </g>
        </g>
        <g>
          <path class="cls-1" d="M46.64,74.8c-.26.04-.41.49-.34,1.01.07.52.34.92.6.88.26-.04.41-.49.34-1.01-.07-.52-.34-.92-.6-.88Z"/>
          <path class="cls-1" d="M51.39,81.86c.13.23.61.2,1.07-.06.46-.26.72-.66.59-.89-.13-.23-.61-.2-1.07.06-.46.26-.72.66-.59.89Z"/>
          <path class="cls-1" d="M60.87,74.39c.13.23.61.2,1.07-.06.46-.26.72-.66.59-.89-.13-.23-.61-.2-1.07.06-.46.26-.72.66-.59.89Z"/>
          <path class="cls-1" d="M52.04,76.61c.44.29.92.34,1.06.11.14-.22-.1-.63-.55-.92s-.92-.34-1.06-.11c-.14.22.1.63.55.92Z"/>
          <path class="cls-1" d="M47.15,69.97c-.04.53.13.97.4.99.26.02.51-.39.56-.91.04-.53-.13-.97-.4-.99-.26-.02-.51.39-.56.91Z"/>
          <path class="cls-1" d="M63.91,78.77c-.08-.25-.56-.32-1.06-.15s-.84.5-.76.76c.08.25.56.32,1.06.15s.84-.5.76-.75Z"/>
          <path class="cls-1" d="M54.23,72.29c-.03.53.16.97.42.98.26.02.5-.4.53-.92.03-.53-.16-.97-.42-.98-.26-.02-.5.4-.53.92Z"/>
          <path class="cls-1" d="M58.24,83.14c-.45-.27-.93-.31-1.06-.08s.12.63.57.9c.45.27.93.31,1.06.08s-.12-.63-.57-.9Z"/>
          <path class="cls-1" d="M66.04,74.25c.08.25.56.32,1.06.15s.84-.5.76-.75c-.08-.25-.56-.32-1.06-.15-.5.17-.84.5-.76.76Z"/>
          <path class="cls-1" d="M68.7,82.06c.14.23.61.19,1.06-.08.45-.27.71-.68.57-.9-.14-.23-.61-.19-1.06.08-.45.27-.71.68-.57.9Z"/>
          <path class="cls-1" d="M63.8,83.17c-.13.23.15.62.61.88.46.25.94.27,1.07.04.13-.23-.15-.62-.61-.88-.46-.25-.94-.27-1.07-.04Z"/>
          <path class="cls-1" d="M57.3,77.2c-.13.23.15.62.61.88.46.25.94.27,1.07.04.13-.23-.15-.62-.61-.88-.46-.25-.94-.27-1.07-.04Z"/>
          <path class="cls-1" d="M67.19,77.66c-.02.26.4.5.92.54.53.03.97-.15.98-.41.02-.26-.4-.5-.92-.54-.53-.03-.97.15-.98.41Z"/>
          <path class="cls-1" d="M76.62,68.2c.21.16.64-.05.96-.46s.42-.89.21-1.05c-.21-.16-.64.05-.96.46-.32.42-.42.89-.21,1.05Z"/>
          <path class="cls-1" d="M73.69,79.09c.17.2.63.1,1.04-.24.41-.34.6-.77.43-.98-.17-.2-.63-.1-1.04.24-.41.34-.6.77-.43.98Z"/>
          <path class="cls-1" d="M77.45,72.14c.08.52.36.91.62.87.26-.04.4-.5.32-1.02-.08-.52-.36-.91-.62-.87-.26.04-.4.5-.32,1.02Z"/>
          <path class="cls-1" d="M71.09,69.81c.23.13.63-.13.89-.59s.3-.93.07-1.07-.63.13-.89.59-.3.93-.07,1.07Z"/>
          <path class="cls-1" d="M72.93,73.28c-.25-.07-.57.28-.72.79-.14.51-.05.98.2,1.05s.58-.28.72-.79c.14-.51.05-.98-.2-1.05Z"/>
        </g>
      </g>
    </g>
  </g>
</svg>