<?xml version="1.0" encoding="UTF-8"?>
<svg id="Capa_2" data-name="Capa 2" xmlns="http://www.w3.org/2000/svg" viewBox="0 0 182.9 146.07">
  <defs>
    <style>
      .cls-1 {
        fill: #3c7abd;
        stroke-width: 0px;
      }
    </style>
  </defs>
  <g id="Capa_3" data-name="Capa 3">
    <g>
      <g>
        <path class="cls-1" d="M49.57,141.57c0-3.69.15-9.16.29-10.47.07-.61.22-.94.68-.94.51,0,1.35.12,1.74.63,1,1.55,3.6,7.61,4.99,11.53-.32-5.68-.49-10.57-.49-11.51,0-.45.12-.7.64-.7.73,0,1.71.33,1.79.96.05.59.05,1.67.05,2.77,0,3.9-.22,10.29-.32,11.41-.05.4-.24.7-.66.7s-1.34-.05-1.74-.61c-1.3-2.09-3.74-7.68-5.04-11.74.2,3.85.42,10.52.42,11.55,0,.52-.24.78-.68.78-.42,0-1.47-.23-1.61-.89-.05-.45-.05-1.76-.05-3.48Z"/>
        <path class="cls-1" d="M61.53,144.41c0-1.08.81-1.85,2.03-1.85,1.3,0,1.74.85,1.74,1.53,0,1.22-.78,1.95-1.93,1.95s-1.83-.75-1.83-1.62Z"/>
        <path class="cls-1" d="M65.59,130.06c.37,0,1.27.16,1.54.66.51,1.01,2.15,5.38,3.08,8.78.88-3.26,2.15-7.3,2.62-8.71.17-.47.29-.7.64-.7.56,0,1.37.31,1.37.8,0,1.22-2.4,7.61-3.6,10.4-.02,1.29-.15,3.1-.17,3.59-.05.7-.17,1.08-.81,1.08-.69,0-1.49-.19-1.54-.8-.02-.47-.05-2.21-.02-3.66-1.15-2.49-3.77-9.63-3.77-10.8,0-.42.17-.63.66-.63Z"/>
        <path class="cls-1" d="M73.86,144.41c0-1.08.81-1.85,2.03-1.85,1.3,0,1.74.85,1.74,1.53,0,1.22-.78,1.95-1.93,1.95s-1.83-.75-1.83-1.62Z"/>
        <path class="cls-1" d="M89.35,143.91c1,0,1.61-.47,1.61-1.27,0-2-6.78-2.09-6.78-6.65,0-3.26,1.76-5.94,4.67-5.94s3.74,2.79,3.74,5.31c0,.7-.71,1.55-1.74,1.55-.29,0-.56-.21-.56-.59-.05-2.65-.73-4.13-1.76-4.13s-1.79,1.29-1.79,3.55c0,2.89,6.51,2.91,6.51,6.67,0,2.3-2.05,3.66-4.48,3.66-2.86,0-4.82-1.1-4.82-1.9,0-.87.42-1.69.88-1.69.66,0,2.57,1.43,4.5,1.43Z"/>
        <path class="cls-1" d="M94.04,131.42c0-.33.15-.61.81-.77.93-.19,3.35-.47,6.31-.47,1.08,0,1.81.77,1.81,1.43,0,.38-.42.54-1.57.7-.42.07-.95.12-1.52.19.15,3.45-.1,11.27-.17,12.52-.05.59-.2.92-.81.92-.78,0-1.42-.21-1.49-.82-.15-1.1-.25-8.03-.15-12.42-.81.02-1.59.07-2.2.07s-1.03-1.03-1.03-1.34Z"/>
        <path class="cls-1" d="M104.73,130.06c.37,0,1.27.16,1.54.66.51,1.01,2.15,5.38,3.08,8.78.88-3.26,2.15-7.3,2.62-8.71.17-.47.29-.7.64-.7.56,0,1.37.31,1.37.8,0,1.22-2.4,7.61-3.6,10.4-.02,1.29-.15,3.1-.17,3.59-.05.7-.17,1.08-.81,1.08-.69,0-1.49-.19-1.54-.8-.02-.47-.05-2.21-.02-3.66-1.15-2.49-3.77-9.63-3.77-10.8,0-.42.17-.63.66-.63Z"/>
        <path class="cls-1" d="M117.06,130.18c.61,0,1.59.23,1.69.85.27,1.88.1,9.68-.02,12.82,1.44-.07,2.91-.14,3.57-.14.78,0,1.35.63,1.35,1.39,0,.45-.25.54-1,.68-.37.07-2.1.19-3.5.19-.51,0-.93,0-1.3-.02-.76,0-1.39-.21-1.49-.82-.15-1.24-.25-10.17-.07-14.25.02-.4.24-.68.78-.68Z"/>
        <path class="cls-1" d="M124.57,131.4c0-.33.15-.61.81-.78.95-.19,3.5-.45,6.53-.45,1.08,0,1.83.73,1.83,1.36,0,.4-.42.61-1.61.77-1,.14-2.54.28-4.04.38.05,1.36.05,3.29.02,5.19,1.25-.19,2.64-.31,3.28-.31s1.27.66,1.27,1.15-.17.63-.61.68c-.54.05-2.5.14-3.99.19-.02,1.69-.07,3.26-.12,4.37,1.49-.16,3.01-.28,4.08-.28.93,0,1.98,1.83.9,1.97-.56.09-3.74.38-5.67.38-.56,0-1.62-.42-1.76-1.08-.12-.66-.17-7.89-.02-12.16h-.07c-.49,0-.83-1.08-.83-1.39Z"/>
      </g>
      <g>
        <g>
          <path class="cls-1" d="M10.03,54.14c-8.19,0-9.39-5.14-9.39-13.75C.64,32.3.12,27.83.12,19.06.12,6.75.46,0,11.15,0s21.63,3.63,21.63,16.28c0,2.28-.43,4.55-1.72,6.49-.95,1.43-3.19,2.02-3.19,2.61,0,.51.52,1.01,1.98,1.94,4.14,2.7,6.72,7.08,6.72,12.4,0,12.82-10.69,14.42-24.47,14.42h-2.07ZM15.11,11.81c-.95,0-.86.34-.95,1.52,0,.67-.09,3.79-.09,4.47,0,.84.17,1.27.95,1.27,1.98,0,4.14-.67,4.14-3.54,0-1.6-2.33-3.71-4.05-3.71ZM14.34,39.38c0,1.6.34,2.19,1.38,2.19,2.76,0,5.17-1.77,5.17-4.05,0-3.04-2.41-5.31-5.52-5.31-.95,0-1.12.59-1.12,2.45s.09,2.95.09,4.72Z"/>
          <path class="cls-1" d="M55.53,1.18c15.6,0,22.06,25.3,22.06,41.41,0,4.72-1.29,9.19-5.95,9.19-6.21,0-6.98-6.07-8.36-10.96-.6-2.11-1.98-2.87-4.14-2.87-.95,0-1.98.08-3.19.34-1.72.42-1.81.93-2.15,2.61-1.29,5.31-2.07,12.57-8.53,12.57-4.83,0-6.38-3.63-6.38-9.36,0-8.01,3.27-19.31,5.08-27.24,1.64-7.17,4.14-15.69,11.55-15.69ZM59.58,26.99c1.21,0,1.46-.25,1.46-1.6,0-4.13-1.55-8.86-2.93-8.86-2.07,0-3.1,5.4-3.1,9.02,0,.67.26,1.01,1.38,1.18.95.17,2.07.25,3.19.25Z"/>
          <path class="cls-1" d="M110.25,17.54c-1.29,0-7.07-2.28-8.19-2.28-5.6,0-8.45,8.77-8.45,13.66,0,5.14,1.55,11.22,7.24,11.22,2.5,0,4.83-.67,4.83-4.22,0-2.02-6.98.51-6.98-7.17,0-5.57,3.62-6.49,8.88-6.49,7.93,0,10.77,1.43,10.77,10.54,0,11.13-3.45,21.76-18.1,21.76s-20.86-12.99-20.86-25.89S86.3,1.52,101.55,1.52c5.17,0,15.43,2.7,15.43,8.94,0,3.8-3.28,7.08-6.72,7.08Z"/>
          <path class="cls-1" d="M148.09,8.52c0,7-12.93,2.11-12.93,8.26,0,4.05,11.2,2.87,11.2,9.7,0,5.99-10,4.98-10,7.51,0,7.34,14.05-.25,14.05,9.87,0,7.76-7.84,9.61-15.34,9.61-13.1,0-13.62-12.82-13.62-26.06v-1.35c0-12.4.26-24.46,13.96-24.46,5.69,0,12.67.34,12.67,6.92Z"/>
          <path class="cls-1" d="M154.03,40.4v-3.63c0-6.16-.95-12.31-.95-18.55,0-7.17,1.46-18.05,9.22-18.05,5.86,0,7.5,6.83,7.5,12.48,0,7.84-1.03,16.45-1.03,25.64,0,1.69,2.07,2.02,4.39,2.02,1.64,0,3.36-.17,4.57-.17,2.76,0,5.17.76,5.17,5.73,0,7.76-10.26,8.18-16.89,8.18-9.05,0-11.98-5.14-11.98-13.66Z"/>
        </g>
        <g>
          <path class="cls-1" d="M32.14,70.39c0,16.77-16.96,1.92-16.96,19.66s18.57,6.03,18.57,19.13c0,5.24-6.16,8.39-12.41,8.39-14.46,0-21.34-10.83-21.34-25.33,0-21.4,12.23-28.83,21.52-28.83,5.62,0,10.62,2.45,10.62,6.99Z"/>
          <path class="cls-1" d="M70.44,76.42c0,9.08-5.09,9.52-5.09,13.54,0,5.5,6.87,13.8,6.87,23.15,0,2.1-2.68,4.46-6.7,4.46-10.62,0-8.84-24.11-13.04-24.11-4.82,0,1.25,24.02-8.3,24.02-7.05,0-7.68-7.86-7.68-13.71v-8.47c0-4.46.27-9,.27-13.45,0-16.77,2.59-19.39,19.64-19.39,8.39,0,14.02,4.19,14.02,13.98ZM53.57,74.5c-1.25,0-1.79.17-1.79,1.57,0,.87.09,3.58.18,4.37.09.61.18.79.45.79,1.7,0,4.91-2.62,4.91-4.63,0-1.66-2.5-2.1-3.75-2.1Z"/>
          <path class="cls-1" d="M97.93,88.65c0-2.01-.09-2.45-.09-4.46,0-9.52.27-20.7,6.34-20.7,7.59,0,7.68,7.43,7.68,14.06v.87c0,16.6-.18,39.14-17.68,39.14-18.57,0-20.27-13.54-20.27-30.84,0-3.93.36-7.86.36-11.88,0-6.03.71-11.36,8.04-11.36,6.52,0,6.79,8.56,6.79,14.68,0,2.71-.09,5.33-.09,8.39,0,6.38.54,9.35,4.38,9.35,4.11,0,4.55-2.53,4.55-7.25Z"/>
          <path class="cls-1" d="M123.29,118.09c-5.27,0-8.57-3.84-8.57-8.39,0-9.61,12.32-9.96,12.32-18.43,0-5.59-10.36-6.38-10.36-13.1,0-11.36,10.98-14.85,20.62-14.85,3.39,0,7.14,1.57,7.14,6.03,0,6.99-8.84,4.72-8.84,9.87,0,6.46,8.84,8.74,8.84,20,0,12.32-10.09,18.87-21.16,18.87Z"/>
          <path class="cls-1" d="M157.66,86.9c0-3.76,0-7.6-5-7.6-3.75,0-5.71-3.15-5.71-6.46,0-8.74,10.8-9.35,18.48-9.35s15.18.61,15.18,8.12c0,8.74-8.75,3.58-8.75,9.61,0,8.56.54,17.12.54,25.07,0,5.24-.89,11.27-7.95,11.27-5.98,0-6.96-9.35-6.96-13.98,0-5.77.18-10.83.18-16.69Z"/>
        </g>
      </g>
    </g>
  </g>
</svg>